<svg viewBox="0 0 800 260" xmlns="http://www.w3.org/2000/svg"><g fill="none" fill-rule="evenodd"><path d="m143.050179 158.073706c-10.654493 16.543099-32.872466 29.459729-59.3962614 29.459729-47.8343632 0-83.6539176-35.577716-83.6539176-84.298417 0-48.722285 35.8195544-84.2984171 83.6539176-84.2984171 19.9502524 0 41.4856924 7.4777151 55.5417674 25.3805429l-14.280947 10.6498873c-6.348671-10.4235297-24.257657-21.0749999-41.2608204-21.0749999-41.2592365 0-65.9713877 32.405543-65.9713877 69.3429868 0 36.93586 24.7121512 69.341403 65.9713877 69.341403 16.7767084 0 34.0063274-5.438914 46.0211354-24.020814z" fill="#2d8e44"/><path d="m163.224 183.868h14.672v-171.04h-14.672z" fill="#2d8e44"/><path d="m291.136506 122.849735c0-20.221751-12.955169-34.0822442-34.544471-34.0822442-19.544667 0-37.270119 16.5872002-37.270119 34.0822442zm-72.2686 12.270179c1.819216 21.356556 17.954044 38.170717 39.087748 38.170717 15.907823 0 28.180388-8.86259 34.088872-18.404475l11.589963 9.541885c-12.497983 15.906317-28.178801 22.494535-45.678835 22.494535-31.588641 0-54.995571-23.856301-54.995571-55.894309 0-32.0364204 23.40693-55.8927216 53.631952-55.8927216 32.271244.2269611 50.904717 24.0832623 50.904717 53.1676026v6.816766zm170.44716-3.863098c-15.229686 0-49.555629 1.134805-49.555629 22.492947 0 14.087455 12.95738 19.540868 25.004886 19.540868 21.822707 0 32.28071-15.450808 32.28071-34.309205v-7.72461zm7.729967-12.27018v-2.726706c0-18.4028884-8.866913-27.4924392-27.280368-27.4924392-12.501649 0-23.413796 4.3170208-32.506193 12.4971402l-9.092398-10.6782777c9.773613-9.998982 25.004887-15.4508079 45.009431-15.4508079 20.91442 0 38.872143 11.8146701 38.872143 37.7167946v47.487229c0 8.180119.909874 18.175927 1.819749 23.857888h-14.548471c-.911462-5.226452-1.365606-11.587709-1.365606-17.268083h-.454143c-8.638254 14.087455-20.460276 19.993202-37.508124 19.993202-18.867598 0-36.599837-10.451316-36.599837-31.126989 0-34.536166 40.691892-36.808951 66.150922-36.808951zm58.569035-41.1341962c.682932 5.6648119.682932 11.3280414.682932 16.9896885h.454229c6.592676-11.552735 21.599707-19.7065829 35.695104-19.7065829 27.058397 0 40.018221 15.1763158 40.018221 41.4528146v67.279926h-15.007031v-58.671944c0-23.558022-6.594264-36.4699952-28.875314-36.4699952-3.18278 0-32.285209 2.0396488-32.285209 40.7755692v54.36637h-15.007031v-82.682518c0-5.6632293-.681344-15.6304499-1.135573-23.3333282z" fill="#2d8e44"/><path d="m618.712 110.002-38.52 31.489-14.95-21.249 61.262-45.572h27.935l-25.509 181.26h-30.755z" fill="#273978"/><path d="m729.736133 229.818144c18.196741 0 35.153443-14.849913 37.711123-33.026701 2.557679-18.178369-10.216465-33.0267-28.414789-33.0267-18.196741 0-35.15186 14.848331-37.709539 33.0267-2.557679 18.176788 10.216464 33.026701 28.413205 33.026701zm57.203332-155.1481351-53.009688 67.0769331.44027.512557c3.876903-2.048646 11.196776-3.07376 17.347876-3.07376 32.0383 0 50.881192 26.369789 46.448409 57.861983-5.295901 37.633385-36.143257 61.956109-73.306418 61.956109-37.931257 0-61.308289-23.299192-55.903113-61.701413 2.666955-18.945623 11.675055-33.793954 23.905989-49.667399l56.656954-72.9650101z" fill="#273978"/><path d="m369.243012 61.6966674h1.258389l-.333243-12.7111986c.034911-1.2448296.560166-1.7405441 1.680497-1.5964227 4.50354.7823738 8.999146 1.5694989 13.497925 2.3518727-.479235-1.5378238-.956883-3.0851501-1.431358-4.6277252-.274528-.8314701-.244378-1.7373766.420521-2.2695175 4.749505-3.591951 9.500597-7.1839019 14.248516-10.7726854-1.093355-.4814608-2.191469-.9597541-3.284824-1.4332961-.618879-.3341718-1.012423-.9011553-.845802-1.3477735 1.012424-3.1453327 2.026435-6.2874979 3.037271-9.4280794-2.585013.7000187-5.171612 1.4047886-7.756625 2.1048073-.677594.159959-1.209196.0158375-1.436119-.416527-.645856-1.2955096-1.296473-2.5878518-1.937569-3.8754427-2.140689 2.2980251-4.576536 4.8827094-6.712465 7.183902-.953709.9328303-1.977241.1377864-1.81062-.6192473 1.180632-5.5272967 2.361264-11.0514259 3.548244-16.58189004-1.748732 1.06903302-3.487943 2.13331479-5.230327 3.19601284-.804544.4972983-1.313929.3991056-1.520223 0-1.799511-3.61887479-3.599023-7.23299829-5.392188-10.8534568-1.794751 3.62045851-3.594263 7.24091702-5.393774 10.8597918-.209467.3927706-.717266.4972983-1.52181 0-1.740797-1.06903305-3.481595-2.13331482-5.230327-3.19601283 1.18698 5.52412913 2.369199 11.04825833 3.549831 16.57555503.166621.7633687-.860084 1.5520776-1.813794.6239985-2.134341-2.3059438-4.568602-4.8858768-6.710878-7.1886532-.642682 1.2939259-1.290126 2.5799331-1.937569 3.8754427-.225336.4386995-.760111.576486-1.434532.4212782-2.588186-.7047699-5.173199-1.4032048-7.761386-2.1095585 1.015598 3.1469165 2.026434 6.2874979 3.040445 9.4280794.166621.4513695-.226923 1.0136017-.844215 1.3477735-1.093355.479877-2.19623.9518353-3.287997 1.4332961 4.751092 3.5887835 9.500597 7.1807344 14.251689 10.7726854.663312.5321409.691876 1.4380474.420521 2.2695175-.474475 1.5473263-.955297 3.0899014-1.434532 4.6277252 4.50354-.7823738 8.997559-1.5694989 13.497926-2.3518727 1.123504-.1393702 1.648759.3515931 1.682083 1.5964227l-.33483 12.7111986z" fill="#2d8e44"/><g fill="#273978"><path d="m22.1913738 220.812715c-3.0308859 0-4.6806947 4.449262-5.5124025 8.80338-.8198019 4.300492-.9660736 8.748024 2.1566573 8.748024 3.1567476 0 4.6789939-4.447532 5.4987958-8.748024.8334086-4.354118.8895361-8.80338-2.1430506-8.80338zm-3.8030645 19.885018c-4.7453263 0-5.6246574-5.008015-4.4765946-11.017632 1.1412595-5.97502 3.9425328-11.017632 8.68956-11.017632 4.7487281 0 5.6212558 5.042612 4.4799963 11.017632-1.1480628 6.009617-3.9442336 11.017632-8.6929617 11.017632zm14.6914578 0c-3.43085 0-4.8762463-1.773609-4.1369445-5.545993l2.2738339-11.592546h2.6426109l-2.3350054 11.906045c-.4089755 2.087109.4159665 3.176562 2.1147878 3.176562 1.0067089 0 1.8491285-.282322 2.5202678-.652979l2.8296211-14.429628h2.612899l-3.0882894 15.735586c-1.1832325.748242-3.0428476 1.402953-5.4337812 1.402953m13.7659134-.612091c-2.0555982 0-3.1909769-1.410811-2.6712846-4.172725l2.0092562-10.650173h-1.4283263l.3459098-1.842413h1.4299814l.7166457-3.804243 2.6265976-.953619-.8970484 4.757862h2.4130935l-.3475649 1.842413h-2.4147486l-1.9728446 10.465932c-.3293591 1.748587.2399853 2.362724 1.1933062 2.362724.2681215 0 .5478285-.059707.7993992-.122827l-.3558402 1.871414c-.2598462.122828-.8507065.245655-1.446532.245655m6.9236533.612091c-1.672856 0-2.87366-.36639-3.6024119-1.225277l1.0664242-1.961465c.4496554.552141 1.3162328 1.042933 2.6496937 1.042933 1.333461 0 2.5704441-.920235 2.8340352-2.26821.3325039-1.687099-.3738514-2.363643-1.7090352-3.467926-1.3506891-1.163928-2.7306661-2.665275-2.2913476-4.90622.482389-2.450553 2.6238514-4.352374 5.104709-4.352374 1.550536 0 2.6703676.460118 3.3577718 1.226981l-1.0199081 1.716069c-.4307044-.490792-1.2404288-.95091-2.3585375-.95091-1.1801302 0-2.2396631.981585-2.4619066 2.116542-.3014931 1.532022.6167688 2.390909 1.900268 3.433843 1.4902374 1.257655 2.7272205 2.544281 2.2258806 5.088563-.5047856 2.578364-3.0269908 4.507451-5.6956356 4.507451m12.0429404-.612091c-2.0575271 0-3.193057-1.410811-2.6716402-4.172725l2.0078684-10.650173h-1.4301717l.3492664-1.842413h1.4285165l.7183964-3.804243 2.6236368-.953619-.8971679 4.757862h2.4150701l-.3492665 1.842413h-2.4134148l-1.9731073 10.465932c-.3310582 1.748587.238362 2.362724 1.1918098 2.362724.2714678 0 .5495567-.059707.7995057-.122827l-.352577 1.871414c-.2615361.122828-.8541304.245655-1.4467247.245655m13.1643432-8.891899c-3.48266.521466-5.489674 1.441702-6.0819631 4.509155-.4129102 2.145512.4992151 3.248091 2.4808452 3.248091.824128 0 1.6871779-.214721 2.1627015-.460118zm-4.12064 9.50399c-3.5943489 0-4.9464603-1.99214-4.372786-4.969273.8461273-4.383049 4.6266242-5.669675 8.8132621-6.191142l.1539952-.797538c.4501397-2.327855-.5669053-3.219121-2.2439297-3.219121-1.3402656 0-2.6906848.521467-3.5097361.981585l-.2487614-1.716069c.9307401-.552141 2.5823806-1.226981 4.5030896-1.226981 2.5603812 0 4.6520079 1.319005 3.8583405 5.424279l-2.0222443 10.488983c-1.2404226.734485-2.8903709 1.225277-4.9312299 1.225277zm16.7510922-.612091 2.3407438-12.175876c.3846857-1.997211-.376099-3.026183-2.1672917-3.026183-1.267402 0-1.8976683.218635-2.5708682.498001l-2.8284703 14.704058h-2.5657161l3.05516-15.889197c1.4185285-.780839 3.2080039-1.249342 5.4972272-1.249342 3.0929416 0 4.8308966 1.40551 4.1473926 4.962663l-2.3407438 12.175876zm16.5935814-14.478328c-.404318-.124969-.844462-.248226-1.456911-.248226-3.10148 0-4.693164 3.295412-5.355086 6.715793-.759164 3.911697-.211542 6.652452 2.490738 6.652452.644862 0 1.32555-.030814 1.847581-.338956zm-4.826231 15.090419c-4.0858337 0-5.5734525-3.262886-4.5771574-8.408864 1.0679466-5.510614 4.2683744-8.715295 7.8304704-8.715295.800107 0 1.444969.154071 1.908997.308142l1.484207-7.66761h2.548741l-4.5038 23.252769c-1.05771.708728-2.695456 1.230858-4.691458 1.230858zm13.548013-20.269662c-.803501 0-1.329819-.671938-1.174728-1.494892.16334-.855194.937142-1.494892 1.738993-1.494892s1.334769.639698 1.171429 1.494892c-.155091.822954-.933843 1.494892-1.735694 1.494892zm-4.964546 19.657571 3.110059-16.45399h2.494648l-3.11006 16.45399zm14.521032 0 2.342378-12.175876c.384671-1.997211-.376086-3.026183-2.168932-3.026183-1.267356 0-1.8976.218635-2.570776.498001l-2.828369 14.704058h-2.565624l3.05505-15.889197c1.420195-.780839 3.207889-1.249342 5.498748-1.249342 3.089396 0 4.830724 1.40551 4.145527 4.962663l-2.342377 12.175876zm16.405591-14.214032c-.357699-.215986-1.003261-.368547-1.76976-.368547-2.636755 0-4.271951 2.742673-5.082737 6.935533-.720508 3.735178-.054506 6.479564 2.185373 6.479564.613199 0 1.236618-.059996 2.260319-.584532zm-7.109699 21.55912c-2.02526 0-3.428804-.495395-4.239589-1.235916l1.168484-1.9113c.522923.462826 1.708441.987362 3.089841.987362 2.391476 0 3.694523-1.820449 4.159532-4.223716l.197587-1.018217c-.807379.524536-1.7391.740521-2.842858.740521-3.282317 0-4.810204-3.207212-3.837603-8.236588 1.030515-5.334498 3.878483-8.973682 8.172578-8.973682 2.086579 0 3.266987.557105 3.963649 1.234203l-3.086434 15.976067c-.809082 4.191147-3.340231 6.661266-6.745187 6.661266zm25.285926-6.732997c-4.393671 0-5.851352-4.790049-4.649797-11.017632 1.131078-5.852198 4.543221-11.017632 9.000494-11.017632 1.670832 0 2.726276.470528 3.443084 1.247246l-.998718 1.804269c-.44865-.406523-1.232497-.840724-2.47187-.840724-3.247122 0-5.265185 4.357579-6.124667 8.806841-.842292 4.357578-.376453 8.684018 2.717681 8.684018 1.237654 0 2.214025-.404793 2.862075-.870131l.269877 1.959958c-.856044.74558-2.251842 1.243787-4.048159 1.243787m14.318695-15.298068c-2.46411 0-3.607498 3.403169-4.244215 6.714313-.638405 3.309441-.711028 6.528562 1.693971 6.528562 2.432021 0 3.536564-3.219121 4.174969-6.528562.638406-3.311144.808985-6.714313-1.624725-6.714313zm-2.947137 15.298068c-3.892923 0-4.772841-3.801937-3.857456-8.55308.933964-4.846575 3.26634-8.585459 7.128863-8.585459 3.891233 0 4.750885 3.738884 3.818611 8.585459-.915386 4.751143-3.227495 8.55308-7.090018 8.55308zm16.451041-.612091 2.340643-12.175876c.384669-1.997211-.376083-3.026183-2.170633-3.026183-1.267347 0-1.895869.218635-2.56904.498001l-2.828348 14.704058h-2.565606l3.055029-15.889197c1.420184-.780839 3.207865-1.249342 5.498707-1.249342 3.091091 0 4.830689 1.40551 4.145497 4.962663l-2.340643 12.175876zm10.909676 0c-2.055869 0-3.191398-1.410811-2.669982-4.172725l2.007866-10.650173h-1.428515l.345956-1.842413h1.43017l.718396-3.804243 2.62529-.953619-.897167 4.757862h2.413412l-.347611 1.842413h-2.415068l-1.973105 10.465932c-.329403 1.748587.240017 2.362724 1.193464 2.362724.268157 0 .547901-.059707.79785-.122827l-.354232 1.871414c-.259881.122828-.850819.245655-1.446724.245655m12.645879-14.824175c-1.036427-.466616-2.312832-.341723-3.26231.187341l-2.851912 14.636834h-2.598023l3.09363-15.884036c1.643327-.87252 3.0745-1.309648 6.695038-1.248936zm5.429518-4.833396c-.803556 0-1.32991-.671938-1.174809-1.494892.163351-.855194.937207-1.494892 1.740763-1.494892.800256 0 1.331559.639698 1.169858 1.494892-.155101.822954-.933907 1.494892-1.735812 1.494892zm-4.964887 19.657571 3.110273-16.45399h2.494818l-3.108623 16.45399zm14.003048-14.755656c-.696384 0-1.380993.092442-2.166527.552944l-2.393608 12.534549c.356603.186597.995795.342381 1.692179.342381 2.72666 0 4.277543-2.896539 5.042892-6.900679.681245-3.574452.188394-6.529195-2.174936-6.529195zm-3.300252 15.367747c-2.119428 0-3.286796-.554656-3.973087-1.230858l4.440706-23.252769h2.513036l-1.530698 8.004855c.58873-.366347 1.518924-.645387 2.730025-.645387 3.239697 0 4.753574 3.173867 3.801514 8.16235-1.017662 5.32744-3.801514 8.961809-7.981496 8.961809zm14.424675 0c-3.431152 0-4.878424-1.773609-4.137309-5.545993l2.274035-11.592546h2.642843l-2.336959 11.906045c-.409011 2.087109.417751 3.176562 2.116723 3.176562 1.006797 0 1.849291-.282322 2.520489-.652979l2.829871-14.429628h2.611381l-3.086813 15.735586c-1.183337.748242-3.043116 1.402953-5.434261 1.402953m13.765967-.612091c-2.057527 0-3.193057-1.410811-2.67164-4.172725l2.009524-10.650173h-1.430172l.347611-1.842413h1.430172l.716741-3.804243 2.626947-.953619-.898823 4.757862h2.413415l-.347611 1.842413h-2.413415l-1.973107 10.465932c-.329403 1.748587.240017 2.362724 1.19512 2.362724.266502 0 .546246-.059707.796195-.122827l-.354232 1.871414c-.259881.122828-.85082.245655-1.446725.245655m11.680481-14.685977c-2.46411 0-3.607498 3.403169-4.244215 6.714313-.638405 3.309441-.711028 6.528562 1.693971 6.528562 2.432021 0 3.536564-3.219121 4.173281-6.528562.640094-3.311144.810673-6.714313-1.623037-6.714313zm-2.947137 15.298068c-3.892922 0-4.772841-3.801937-3.857455-8.55308.933963-4.846575 3.266339-8.585459 7.128862-8.585459 3.891234 0 4.750886 3.738884 3.818611 8.585459-.917075 4.751143-3.229184 8.55308-7.090018 8.55308zm17.981903-15.436266c-1.036611-.466616-2.311504-.341723-3.26289.187341l-2.85068 14.636834h-2.598484l3.094179-15.884036c1.64362-.87252 3.071569-1.309648 6.694489-1.248936zm2.845373 15.436266c-1.674578 0-2.875382-.36639-3.604134-1.225277l1.066424-1.961465c.449655.552141 1.316233 1.042933 2.649694 1.042933s2.572166-.920235 2.835758-2.26821c.330781-1.687099-.375575-2.363643-1.709036-3.467926-1.352412-1.163928-2.732389-2.665275-2.29307-4.90622.482389-2.450553 2.623851-4.352374 5.104709-4.352374 1.552259 0 2.670367.460118 3.357772 1.226981l-1.019908 1.716069c-.428982-.490792-1.238706-.95091-2.358538-.95091-1.178407 0-2.23794.981585-2.460184 2.116542-.303216 1.532022.615046 2.390909 1.898546 3.433843 1.490237 1.257655 2.725497 2.544281 2.22588 5.088563-.506508 2.578364-3.025268 4.507451-5.693913 4.507451m20.606302-.612091c-2.057527 0-3.193057-1.410811-2.67164-4.172725l2.007868-10.650173h-1.428516l.347611-1.842413h1.430172l.716741-3.804243 2.625292-.953619-.897168 4.757862h2.413415l-.347611 1.842413h-2.413415l-1.974763 10.465932c-.329403 1.748587.240018 2.362724 1.193465 2.362724.269813 0 .547902-.059707.799506-.122827l-.354232 1.871414c-.261536.122828-.852475.245655-1.446725.245655m11.680959-14.685977c-2.465957 0-3.607729 3.403169-4.246175 6.714313-.638446 3.309441-.711074 6.528562 1.694079 6.528562 2.432176 0 3.536789-3.219121 4.175236-6.528562.638446-3.311144.809036-6.714313-1.62314-6.714313zm-2.949014 15.298068c-3.891482 0-4.771457-3.801937-3.856013-8.55308.932334-4.846575 3.264859-8.585459 7.127628-8.585459 3.893171 0 4.752878 3.738884 3.818855 8.585459-.915444 4.751143-3.227701 8.55308-7.09047 8.55308zm23.501969 0c-4.393671 0-5.851352-4.790049-4.649796-11.017632 1.131078-5.852198 4.543221-11.017632 9.000493-11.017632 1.670833 0 2.726277.470528 3.443084 1.247246l-.998718 1.804269c-.44693-.406523-1.230777-.840724-2.47015-.840724-3.248841 0-5.266905 4.357579-6.126386 8.806841-.842293 4.357578-.376453 8.684018 2.717681 8.684018 1.239373 0 2.215744-.404793 2.862074-.870131l.269878 1.959958c-.854325.74558-2.251843 1.243787-4.04816 1.243787"/><path d="m340.768 240.086 4.754-24.484h2.587l-4.754 24.484z"/><path d="m355.815495 225.551334c-1.805405 0-3.592422 2.116542-4.307898 5.855426l6.143394-.795833c.588428-3.404873-.028419-5.059593-1.835496-5.059593zm-4.543604 7.573199c-.498158 3.55995.553324 5.458362 2.900351 5.458362 1.656627 0 2.937127-.550437 3.625856-1.012259l.269139 1.90182c-.96957.673136-2.60948 1.225277-4.478409 1.225277-3.670991 0-5.678668-2.726624-4.556977-8.614429 1.046467-5.489036 3.913384-8.52411 7.223294-8.52411 3.43027 0 4.874595 2.852731 3.672663 8.52411zm18.916857-1.93079c-3.482404.521466-5.48927 1.441702-6.081516 4.509155-.41288 2.145512.499178 3.248091 2.480663 3.248091.824067 0 1.687054-.214721 2.164234-.460118zm-4.118645 9.50399c-3.594084 0-4.947788-1.99214-4.374156-4.969273.847757-4.383049 4.627976-5.669675 8.812613-6.191142l.153984-.797538c.450107-2.327855-.565171-3.219121-2.243764-3.219121-1.34186 0-2.690487.521467-3.509478.981585l-.248743-1.716069c.930671-.552141 2.583882-1.226981 4.501066-1.226981 2.560193 0 4.653357 1.319005 3.861441 5.424279l-2.02548 10.488983c-1.240332.734485-2.888466 1.225277-4.927483 1.225277zm16.140072-.612091 2.340838-12.175876c.384702-1.997211-.377831-3.026183-2.169096-3.026183-1.267454 0-1.897746.218635-2.570973.498001l-2.828585 14.704058h-2.56582l3.055284-15.889197c1.420303-.780839 3.208134-1.249342 5.49745-1.249342 3.093067 0 4.83281 1.40551 4.145843 4.962663l-2.339121 12.175876zm21.12308.612091c-4.397359 0-5.853404-4.790049-4.653499-11.017632 1.131142-5.852198 4.54348-11.017632 8.999287-11.017632 1.672647 0 2.72987.470528 3.445 1.247246l-.998775 1.804269c-.445237-.406523-1.232567-.840724-2.470292-.840724-3.250745 0-5.268924 4.357579-6.126735 8.806841-.84234 4.357578-.376475 8.684018 2.716117 8.684018 1.241163 0 2.21759-.404793 2.863957-.870131l.269893 1.959958c-.856093.74558-2.251971 1.243787-4.044953 1.243787m14.574493-9.50399c-3.483164.521466-5.488776 1.441702-6.081151 4.509155-.414663 2.145512.499287 3.248091 2.481204 3.248091.820863 0 1.689115-.214721 2.161323-.460118zm-4.121236 9.50399c-3.593177 0-4.945485-1.99214-4.370035-4.969273.844558-4.383049 4.625602-5.669675 8.814539-6.191142l.152325-.797538c.448512-2.327855-.566988-3.219121-2.244255-3.219121-1.342152 0-2.692767.521467-3.511937.981585l-.247105-1.716069c.929183-.552141 2.582755-1.226981 4.50205-1.226981 2.560752 0 4.652681 1.319005 3.860591 5.424279l-2.024229 10.488983c-1.240603.734485-2.889097 1.225277-4.931944 1.225277zm15.801062-15.874947c-.869214 0-1.463667.15457-1.916419.404661l-2.510872 13.00126c.378446.125046.815645.279616 1.468852.279616 3.143342 0 4.790183-3.529062 5.439934-6.87403.722329-3.749629.288586-6.811507-2.481495-6.811507zm-2.854756 15.56122c-.808732 0-1.422193-.189305-1.893954-.343875l-1.30987 6.778509h-2.616283l4.375449-22.621082c1.20273-.750273 2.825379-1.250455 4.753894-1.250455 4.140433 0 5.652486 3.278972 4.636387 8.529147-1.081766 5.59405-4.335704 8.907756-7.945623 8.907756zm15.050297-19.955935c-.80365 0-1.330066-.671938-1.174946-1.494892.16007-.855194.937317-1.494892 1.737666-1.494892.802001 0 1.338318.639698 1.173297 1.494892-.155119.822954-.934017 1.494892-1.736017 1.494892zm-4.963819 19.657571 3.107337-16.45399h2.496762l-3.110638 16.45399zm10.749436 0c-2.057494 0-3.191351-1.410811-2.669942-4.172725l2.009491-10.650173h-1.428493l.34595-1.842413h1.428494l.718384-3.804243 2.62525-.953619-.897153 4.757862h2.413376l-.349261 1.842413h-2.411721l-1.973075 10.465932c-.331053 1.748587.238358 2.362724 1.19179 2.362724.269808 0 .547893-.059707.799493-.122827l-.355882 1.871414c-.259876.122828-.849151.245655-1.446701.245655m13.165819-8.891899c-3.482155.521466-5.487186 1.441702-6.081081 4.509155-.411159 2.145512.500834 3.248091 2.478793 3.248091.825701 0 1.688625-.214721 2.16408-.460118zm-4.120043 9.50399c-3.595519 0-4.945743-1.99214-4.373844-4.969273.847697-4.383049 4.629338-5.669675 8.811984-6.191142l.155665-.797538c.450075-2.327855-.568515-3.219121-2.243604-3.219121-1.340071 0-2.688603.521467-3.510919.981585l-.247033-1.716069c.930605-.552141 2.582006-1.226981 4.502436-1.226981 2.56001 0 4.653026 1.319005 3.857781 5.424279l-2.023643 10.488983c-1.238551.734485-2.88826 1.225277-4.928823 1.225277z"/><path d="m465.574 240.086 4.756-24.484h2.585l-4.755 24.484z"/><path d="m477.269705 220.428071c-.805198 0-1.331547-.671938-1.174797-1.494892.161699-.855194.932248-1.494892 1.739096-1.494892.801898 0 1.331547.639698 1.169847 1.494892-.156749.822954-.933898 1.494892-1.734146 1.494892zm-4.966489 19.657571 3.111893-16.45399h2.491495l-3.106944 16.45399zm9.110824.612091c-1.674841 0-2.874109-.36639-3.604698-1.225277l1.066591-1.961465c.451448.552141 1.316438 1.042933 2.648385 1.042933 1.337116 0 2.570846-.920235 2.837925-2.26821.330832-1.687099-.375633-2.363643-1.712749-3.467926-1.349178-1.163928-2.729371-2.665275-2.291706-4.90622.482464-2.450553 2.625985-4.352374 5.107231-4.352374 1.554224 0 2.672508.460118 3.356574 1.226981l-1.018345 1.716069c-.430772-.490792-1.240623-.95091-2.357183-.95091-1.180315 0-2.241737.981585-2.462292 2.116542-.301541 1.532022.615142 2.390909 1.898842 3.433843 1.490471 1.257655 2.727647 2.544281 2.227952 5.088563-.508311 2.578364-3.029188 4.507451-5.696527 4.507451m23.708312-.612091 2.363047-12.175876c.369009-1.905246-.41925-2.99495-2.007897-2.99495-1.061985 0-2.021756.43727-2.9053 1.308339l-2.690478 13.862487h-2.588264l2.354385-12.144642c.339558-1.747343-.528394-3.057417-2.305877-3.057417-1.12262 0-1.744566.156168-2.461795.468503l-2.860257 14.733556h-2.586532l3.082009-15.889197c1.399811-.780839 2.860257-1.249342 5.261418-1.249342 2.250438 0 3.437159.780839 3.979412 1.842779 1.328781-1.218108 2.792692-1.842779 4.757278-1.842779 2.525896 0 4.216756 1.749079 3.589613 4.962663l-2.361314 12.175876z"/></g></g></svg>