<svg viewBox="0 0 799 332" xmlns="http://www.w3.org/2000/svg"><g fill="none" fill-rule="evenodd"><path d="m138.470654 145.242064c-10.313558 16.020548-31.819554 28.528945-57.4955168 28.528945-46.3030791 0-80.9751372-34.45163-80.9751372-81.6360922 0-47.1810354 34.6720581-81.6343787 80.9751372-81.6343787 19.3113668 0 40.1594878 7.2401705 53.7641328 24.5782031l-13.823937 10.3137308c-6.145304-10.0961488-23.4813332-20.4098796-39.9401958-20.4098796-39.938483 0-63.8583998 31.3814962-63.8583998 67.1523244 0 35.7691152 23.9199168 67.1506112 63.8583998 67.1506112 16.2378578 0 32.9177248-5.2648 44.5487458-23.260718z" fill="#2d8e44"/><path d="m157.721 169.974h14.672v-166.305h-14.672z" fill="#2d8e44"/><path d="m281.927499 110.390427c0-19.5746041-12.498561-32.9929702-33.330637-32.9929702-18.858258 0-35.961822 16.0577351-35.961822 32.9929702zm-69.730705 11.878019c1.754695 20.675342 17.322687 36.952882 37.716517 36.952882 15.348869 0 27.190062-8.57752 32.890679-17.81617l11.183824 9.23865c-12.060315 15.396605-27.190062 21.776082-44.074503 21.776082-30.480328 0-53.067098-23.094908-53.067098-54.109639 0-31.0147314 22.58677-54.111356 51.750649-54.111356 31.137696.2198043 49.117752 23.3164289 49.117752 51.471987v6.597564zm165.107589-3.738391c-14.716208 0-47.88169 1.099022-47.88169 21.776082 0 13.63817 12.519579 18.915191 24.159479 18.915191 21.0866 0 31.190061-14.956997 31.190061-33.212775v-7.478498zm7.46785-11.878019v-2.639368c0-17.81617-8.565307-26.6152112-26.357822-26.6152112-12.078883 0-22.621325 4.1797163-31.409553 12.0978231l-8.784797-10.3376714c9.444986-9.6782584 24.161194-14.9587135 43.490149-14.9587135 20.208635 0 37.558739 11.4384101 37.558739 36.513273v45.971728c0 7.918107.87968 17.5998 1.75936 23.098342h-14.059448c-.877966-5.058934-1.316948-11.220323-1.316948-16.720583h-.438983c-8.34753 13.639888-19.767938 19.358235-36.241791 19.358235-18.231498 0-35.362111-10.119585-35.362111-30.135515 0-33.434295 39.31467-35.632339 63.916561-35.632339zm56.87901-39.2111287c.659063 5.4766987.659063 10.9533974.659063 16.4318066h.442808c6.374374-11.174039 20.88234-19.0624008 34.514987-19.0624008 26.161709 0 38.689053 14.6803576 38.689053 40.0934709v65.070433h-14.507966v-56.744209c0-22.7859398-6.374374-35.2735655-27.917493-35.2735655-3.079059 0-31.221389 1.9703801-31.221389 39.4349675v52.582807h-14.507966v-79.9680111c0-5.4766987-.660779-15.1165094-1.098438-22.5652986z" fill="#2d8e44"/><path d="m658.826816 90.7041531h-70.727638l-5.664861 34.9965409c4.924401-1.487975 12.970047-2.231962 19.174827-2.231962 34.496521 0 55.359666 22.833893 50.37356 58.329282-5.30663 37.72735-36.097423 60.811525-72.083434 60.811525-27.794673 0-46.792956-13.155203-51.180867-40.209594l32.458542-8.437569c2.190528 12.656353 10.788091 20.35165 25.926383 20.35165 17.868739 0 32.341988-12.910064 34.746769-30.033769 3.453766-24.575577-14.579519-34.005701-36.416232-34.005701-12.904914 0-26.7594 3.226231-37.91772 8.439284l15.064589-94.8172255h100.015229zm65.522136 123.6098729c29.784659 0 39.474058-40.706728 42.545596-62.551495 3.069823-21.841339 4.823273-62.5463523-24.961386-62.5463523-29.779516 0-39.474057 40.7050133-42.543881 62.5463523-3.069823 21.844767-4.819845 62.551495 24.959671 62.551495zm21.564183-153.3950745c19.603334 0 62.448884 7.6935818 50.762643 90.8435795-11.687954 83.151711-56.694893 90.847008-76.305084 90.847008-19.605048 0-62.448884-7.695297-50.76093-90.847008 11.686241-83.1499977 56.694894-90.8435795 76.303371-90.8435795zm-723.7387401 146.6653955c-3.0285669 0-4.6771134 4.444373-5.5081848 8.793707-.8191747 4.295766-.9653345 8.738411 2.1550072 8.738411 3.1543323 0 4.6754139-4.442645 5.4945886-8.738411.8327709-4.349334.8888555-8.793707-2.141411-8.793707zm-3.8001547 19.863167c-4.7416956 0-5.6203539-5.002511-4.4731695-11.005525 1.1403863-5.968454 3.9395163-11.005525 8.6829115-11.005525 4.7450948 0 5.616955 5.037071 4.4765686 11.005525-1.1471844 6.003014-3.9412158 11.005525-8.6863106 11.005525zm14.6802172 0c-3.428225 0-4.8725155-1.77166-4.1337792-5.539899l2.2720941-11.579807h2.640589l-2.3332189 11.892962c-.4086626 2.084815.4156483 3.173071 2.1131698 3.173071 1.0059387 0 1.8477137-.282012 2.5183395-.652261l2.8274561-14.413772h2.6108999l-3.0859265 15.718295c-1.1823272.747419-3.0405195 1.401411-5.4296238 1.401411m13.7553809-.611418c-2.0540254 0-3.1885354-1.409261-2.6692407-4.16814l2.0077188-10.63847h-1.4272334l.3456452-1.840388h1.4288872l.7160974-3.800062 2.624588-.952572-.8963621 4.752634h2.4112472l-.347299 1.840388h-2.412901l-1.9713351 10.454431c-.3291072 1.746665.2398016 2.360128 1.1923931 2.360128.2679164 0 .5474094-.059642.7987877-.122692l-.355568 1.869358c-.2596473.122692-.8500556.245385-1.4454253.245385m6.918356.611418c-1.6715761 0-2.8714613-.365988-3.5996557-1.223931l1.0656083-1.95931c.4493114.551535 1.3152257 1.041788 2.6476664 1.041788s2.5684774-.919224 2.8318669-2.265718c.3322494-1.685245-.3735654-2.361045-1.7077276-3.464115-1.3496557-1.162648-2.7285769-2.662346-2.2895945-4.900828.4820199-2.447861 2.6218439-4.347592 5.1008033-4.347592 1.5493497 0 2.6683244.459613 3.3552028 1.225633l-1.0191278 1.714184c-.4303749-.490253-1.2394797-.949866-2.356733-.949866-1.1792272 0-2.2379495.980506-2.4600229 2.114217-.3012624 1.530338.6162969 2.388281 1.8988141 3.430069 1.4890971 1.256273 2.7251339 2.541485 2.2241775 5.082971-.5043994 2.575531-3.0246749 4.502498-5.6912778 4.502498m12.6450499-.611418c-2.0559529 0-3.190614-1.409261-2.6695962-4.16814l2.0063322-10.63847h-1.4290775l.3489993-1.840388h1.4274234l.7178468-3.800062 2.6216295-.952572-.8964815 4.752634h2.4132223l-.3489993 1.840388h-2.4115683l-1.9715976 10.454431c-.330805 1.746665.2381796 2.360128 1.1908979 2.360128.2712601 0 .5491363-.059642.798894-.122692l-.3523073 1.869358c-.2613359.122692-.8534768.245385-1.4456177.245385m12.5429473-8.882129c-3.4799954.520894-5.4854738 1.440119-6.0773097 4.5042-.4125942 2.143155.4988331 3.244523 2.4789471 3.244523.8234975 0 1.685887-.214486 2.1610467-.459613zm-4.1174873 9.493547c-3.5915987 0-4.9426756-1.989951-4.3694402-4.963813.8454799-4.378232 4.6230842-5.663444 8.8065189-6.184338l.1538774-.796661c.4497953-2.325298-.5664716-3.215584-2.2422128-3.215584-1.3392402 0-2.6886262.520894-3.5070508.980507l-.2485711-1.714184c.930028-.551535 2.5804048-1.225633 4.4996442-1.225633 2.5584223 0 4.6484487 1.317556 3.8553885 5.418318l-2.020697 10.477457c-1.2394736.733678-2.8881595 1.223931-4.9274571 1.223931zm16.7382759-.611418 2.3389528-12.162496c.3843913-1.995017-.3758112-3.022858-2.1656335-3.022858-1.2664323 0-1.8962163.218395-2.5689012.497454l-2.8263062 14.6879h-2.5637531l3.0528225-15.871737c1.4174432-.77998 3.2055494-1.247969 5.4930212-1.247969 3.0905752 0 4.8272005 1.403965 4.1442194 4.95721l-2.3389528 12.162496zm16.5808859-14.462418c-.404009-.124832-.843817-.247953-1.455797-.247953-3.099107 0-4.689573 3.29179-5.350989 6.708412-.758582 3.907399-.21138 6.645143 2.488832 6.645143.644369 0 1.324536-.030781 1.846168-.338585zm-4.822539 15.073836c-4.0827075 0-5.5691881-3.2593-4.5736552-8.399624 1.0671294-5.504558 4.2651082-8.705717 7.8244792-8.705717.799495 0 1.443864.153902 1.907537.307803l1.483071-7.659184h2.546791l-4.500354 23.227217c-1.056901.707948-2.693394 1.229505-4.687869 1.229505zm13.537647-20.247388c-.802886 0-1.328801-.671199-1.173829-1.493249.163215-.854254.936425-1.493249 1.737663-1.493249.801237 0 1.333747.638995 1.170532 1.493249-.154972.82205-.933128 1.493249-1.734366 1.493249zm-4.960748 19.63597 3.107681-16.435909h2.492738l-3.10768 16.435909zm14.509923 0 2.340585-12.162496c.384378-1.995017-.375798-3.022858-2.167272-3.022858-1.266387 0-1.896148.218395-2.568809.497454l-2.826205 14.6879h-2.563661l3.052713-15.871737c1.419108-.77998 3.205434-1.247969 5.49454-1.247969 3.087033 0 4.827028 1.403965 4.142355 4.95721l-2.340585 12.162496zm16.393039-14.198413c-.357426-.215748-1.002494-.368141-1.768406-.368141-2.634738 0-4.268683 2.739658-5.078848 6.927911-.719957 3.731073-.054465 6.472444 2.1837 6.472444.61273 0 1.235672-.05993 2.25859-.58389zm-7.10426 21.535429c-2.02371 0-3.42618-.494851-4.236345-1.234558l1.16759-1.9092c.522523.462317 1.707133.986277 3.087477.986277 2.389646 0 3.691696-1.818448 4.15635-4.219074l.197435-1.017098c-.806761.523959-1.73777.739707-2.840683.739707-3.279806 0-4.806524-3.203688-3.834666-8.227537 1.029726-5.328636 3.875515-8.963821 8.166324-8.963821 2.084983 0 3.264488.556494 3.960617 1.232847l-3.084073 15.958511c-.808463 4.186541-3.337675 6.653946-6.740026 6.653946zm25.266579-6.725598c-4.390309 0-5.846875-4.784786-4.646239-11.005525 1.130213-5.845767 4.539745-11.005525 8.993607-11.005525 1.669555 0 2.724191.470012 3.44045 1.245876l-.997954 1.802286c-.448306-.406076-1.231553-.839799-2.469978-.839799-3.244638 0-5.261157 4.352789-6.119981 8.797162-.841648 4.35279-.376165 8.674476 2.715602 8.674476 1.236707 0 2.212331-.404349 2.859885-.869176l.26967 1.957805c-.855389.744761-2.250119 1.24242-4.045062 1.24242m14.30774-15.281257c-2.462225 0-3.604738 3.399429-4.240967 6.706935-.637917 3.305804-.710485 6.521387 1.692674 6.521387 2.430161 0 3.533858-3.215583 4.171776-6.521387.637917-3.307506.808365-6.706935-1.623483-6.706935zm-2.944882 15.281257c-3.889944 0-4.769189-3.797759-3.854504-8.543681.933249-4.841249 3.26384-8.576025 7.123408-8.576025 3.888256 0 4.747251 3.734776 3.815689 8.576025-.914685 4.745922-3.225025 8.543681-7.084593 8.543681zm16.438455-.611418 2.338852-12.162496c.384374-1.995017-.375795-3.022858-2.168973-3.022858-1.266377 0-1.894418.218395-2.567074.497454l-2.826184 14.6879h-2.563643l3.052691-15.871737c1.419098-.77998 3.205411-1.247969 5.4945-1.247969 3.088726 0 4.826993 1.403965 4.142325 4.95721l-2.338852 12.162496zm10.901329 0c-2.054297 0-3.188957-1.409261-2.66794-4.16814l2.00633-10.63847h-1.427422l.345691-1.840388h1.429076l.717846-3.800062 2.623281-.952572-.896481 4.752634h2.411566l-.347344 1.840388h-2.41322l-1.971596 10.454431c-.329151 1.746665.239833 2.360128 1.192551 2.360128.267951 0 .547481-.059642.797239-.122692l-.353961 1.869358c-.259682.122692-.850168.245385-1.445616.245385m12.636203-14.807885c-1.035634-.466103-2.311062-.341347-3.259814.187135l-2.84973 14.62075h-2.596035l3.091262-15.866581c1.64207-.871562 3.072149-1.308209 6.689916-1.247564zm5.425363-4.828085c-.802941 0-1.328892-.671199-1.17391-1.493249.163227-.854254.93649-1.493249 1.739431-1.493249.799644 0 1.330541.638995 1.168964 1.493249-.154983.82205-.933193 1.493249-1.734485 1.493249zm-4.961088 19.63597 3.107893-16.435909h2.49291l-3.106244 16.435909zm13.992334-14.739442c-.695851 0-1.379936.092341-2.164869.552337l-2.391776 12.520775c.356329.186392.995033.342004 1.690883.342004 2.724575 0 4.274271-2.893356 5.039035-6.893095.680723-3.570524.188249-6.522021-2.173273-6.522021zm-3.297727 15.35086c-2.117806 0-3.284281-.554047-3.970047-1.229505l4.437309-23.227217h2.511113l-1.529527 7.996059c.58828-.365945 1.517762-.644678 2.727937-.644678 3.237218 0 4.749937 3.170379 3.798605 8.15338-1.016884 5.321586-3.798605 8.951961-7.97539 8.951961zm15.024963 0c-3.428527 0-4.874692-1.77166-4.134144-5.539899l2.272295-11.579807h2.640822l-2.335172 11.892962c-.408698 2.084815.417432 3.173071 2.115103 3.173071 1.006027 0 1.847877-.282012 2.518562-.652261l2.827705-14.413772h2.609383l-3.084452 15.718295c-1.182431.747419-3.040787 1.401411-5.430102 1.401411m13.144111-.611418c-2.055953 0-3.190614-1.409261-2.669596-4.16814l2.007986-10.63847h-1.429078l.347345-1.840388h1.429078l.716193-3.800062 2.624937-.952572-.898135 4.752634h2.411568l-.347345 1.840388h-2.411569l-1.971597 10.454431c-.329151 1.746665.239833 2.360128 1.194206 2.360128.266298 0 .545828-.059642.795586-.122692l-.353962 1.869358c-.259681.122692-.850168.245385-1.445617.245385m12.282867-14.669839c-2.462225 0-3.604738 3.399429-4.240967 6.706935-.637917 3.305804-.710484 6.521387 1.692674 6.521387 2.430161 0 3.533858-3.215583 4.170088-6.521387.639605-3.307506.810053-6.706935-1.621795-6.706935zm-2.944881 15.281257c-3.889945 0-4.76919-3.797759-3.854505-8.543681.933249-4.841249 3.263841-8.576025 7.123408-8.576025 3.888257 0 4.747251 3.734776 3.815689 8.576025-.916373 4.745922-3.226713 8.543681-7.084592 8.543681zm17.35682-15.419303c-1.035818-.466103-2.309735-.341347-3.260393.187135l-2.848499 14.62075h-2.596496l3.091812-15.866581c1.642362-.871562 3.069218-1.308209 6.689366-1.247564zm2.843197 15.419303c-1.673298 0-2.873183-.365988-3.601378-1.223931l1.065609-1.95931c.449311.551535 1.315225 1.041788 2.647666 1.041788s2.570199-.919224 2.833588-2.265718c.330528-1.685245-.375286-2.361045-1.707727-3.464115-1.351377-1.162648-2.730299-2.662346-2.291316-4.900828.48202-2.447861 2.621844-4.347592 5.100803-4.347592 1.551071 0 2.668325.459613 3.355203 1.225633l-1.019128 1.714184c-.428653-.490253-1.237758-.949866-2.356733-.949866-1.177505 0-2.236228.980506-2.458301 2.114217-.302984 1.530338.614575 2.388281 1.897092 3.430069 1.489098 1.256273 2.723413 2.541485 2.224178 5.082971-.506121 2.575531-3.022953 4.502498-5.689556 4.502498m20.590535-.611418c-2.055953 0-3.190614-1.409261-2.669596-4.16814l2.006332-10.63847h-1.427423l.347345-1.840388h1.429078l.716192-3.800062 2.623284-.952572-.896482 4.752634h2.411569l-.347346 1.840388h-2.411568l-1.973252 10.454431c-.329151 1.746665.239834 2.360128 1.192552 2.360128.269606 0 .547483-.059642.798894-.122692l-.353961 1.869358c-.261336.122692-.851823.245385-1.445618.245385m12.283345-14.669839c-2.46407 0-3.604968 3.399429-4.242925 6.706935-.637958 3.305804-.71053 6.521387 1.692782 6.521387 2.430315 0 3.534084-3.215583 4.172041-6.521387.637958-3.307506.808418-6.706935-1.621898-6.706935zm-2.946757 15.281257c-3.888505 0-4.767807-3.797759-3.853063-8.543681.931621-4.841249 3.262361-8.576025 7.122175-8.576025 3.890192 0 4.749241 3.734776 3.815933 8.576025-.914744 4.745922-3.225232 8.543681-7.085045 8.543681zm23.483988 0c-4.39031 0-5.846875-4.784786-4.646239-11.005525 1.130212-5.845767 4.539744-11.005525 8.993607-11.005525 1.669554 0 2.72419.470012 3.440449 1.245876l-.997953 1.802286c-.446589-.406076-1.229836-.839799-2.468261-.839799-3.246355 0-5.262875 4.352789-6.121699 8.797162-.841648 4.35279-.376165 8.674476 2.715602 8.674476 1.238425 0 2.214049-.404349 2.859885-.869176l.269671 1.957805c-.853672.744761-2.25012 1.24242-4.045062 1.24242" fill="#273978"/><path d="m341.119 226.836 4.75-24.457h2.585l-4.75 24.457z" fill="#273978"/><path d="m355.916351 212.317759c-1.898973 0-3.778605 2.114217-4.53116 5.848992l6.461782-.794959c.618924-3.401131-.029891-5.054033-1.930622-5.054033zm-4.779082 7.564878c-.523976 3.556037.582 5.452363 3.050665 5.452363 1.742483 0 3.089347-.549833 3.81377-1.011147l.283088 1.89973c-1.019819.672396-2.744719 1.223931-4.710508 1.223931-3.861245 0-5.972973-2.723628-4.793148-8.604963 1.100701-5.483004 4.1162-8.514743 7.59765-8.514743 3.608048 0 5.127226 2.849596 3.863003 8.514743zm18.768243-1.92867c-3.479739.520894-5.48507 1.440119-6.076862 4.5042-.412564 2.143155.498796 3.244523 2.478764 3.244523.823437 0 1.685763-.214486 2.162579-.459613zm-4.115493 9.493547c-3.591335 0-4.944003-1.989951-4.37081-4.963813.847109-4.378232 4.624435-5.663444 8.805871-6.184338l.153866-.796661c.449762-2.325298-.564739-3.215584-2.242048-3.215584-1.340832 0-2.688428.520894-3.506792.980507l-.248553-1.714184c.929959-.551535 2.581906-1.225633 4.497622-1.225633 2.558234 0 4.649798 1.317556 3.858487 5.418318l-2.02393 10.477457c-1.239383.733678-2.886257 1.223931-4.923713 1.223931zm16.127723-.611418 2.339047-12.162496c.384407-1.995017-.377542-3.022858-2.167437-3.022858-1.266484 0-1.896293.218395-2.569005.497454l-2.826421 14.6879h-2.563857l3.052946-15.871737c1.419217-.77998 3.205679-1.247969 5.493244-1.247969 3.0907 0 4.829112 1.403965 4.142671 4.95721l-2.337331 12.162496zm21.106919.611418c-4.393995 0-5.848927-4.784786-4.64994-11.005525 1.130277-5.845767 4.540004-11.005525 8.992403-11.005525 1.671367 0 2.727781.470012 3.442363 1.245876l-.99801 1.802286c-.444897-.406076-1.231624-.839799-2.468402-.839799-3.248258 0-5.264892 4.352789-6.122048 8.797162-.841696 4.35279-.376186 8.674476 2.714039 8.674476 1.240213 0 2.215893-.404349 2.861766-.869176l.269686 1.957805c-.855438.744761-2.250248 1.24242-4.041857 1.24242m15.174665-9.493547c-3.480499.520894-5.484577 1.440119-6.076499 4.5042-.414345 2.143155.498906 3.244523 2.479307 3.244523.820234 0 1.687822-.214486 2.159668-.459613zm-4.118083 9.493547c-3.590428 0-4.941701-1.989951-4.366691-4.963813.843911-4.378232 4.622062-5.663444 8.807794-6.184338l.152209-.796661c.448169-2.325298-.566554-3.215584-2.242538-3.215584-1.341125 0-2.690707.520894-3.50925.980507l-.246916-1.714184c.928472-.551535 2.580779-1.225633 4.498605-1.225633 2.558793 0 4.649122 1.317556 3.857638 5.418318l-2.022681 10.477457c-1.239653.733678-2.886886 1.223931-4.92817 1.223931zm15.788973-15.857502c-.86855 0-1.462548.1544-1.914953.404216l-2.508951 12.986974c.378156.124908.815021.279308 1.467728.279308 3.140937 0 4.786518-3.525184 5.435772-6.866476.721777-3.745508.288365-6.804022-2.479596-6.804022zm-2.852572 15.544119c-.808114 0-1.421106-.189097-1.892505-.343497l-1.308868 6.77106h-2.614282l4.372102-22.596223c1.20181-.749448 2.823217-1.249081 4.750257-1.249081 4.137265 0 5.648161 3.275368 4.632839 8.519774-1.080938 5.587903-4.332387 8.897967-7.939543 8.897967zm15.038782-19.934005c-.803036 0-1.329049-.671199-1.174048-1.493249.159948-.854254.9366-1.493249 1.736337-1.493249.801387 0 1.337294.638995 1.172399 1.493249-.155.82205-.933302 1.493249-1.734688 1.493249zm-4.960022 19.63597 3.10496-16.435909h2.494852l-3.108259 16.435909zm10.741212 0c-2.05592 0-3.188909-1.409261-2.667899-4.16814l2.007953-10.63847h-1.4274l.345686-1.840388h1.4274l.717835-3.800062 2.623242-.952572-.896467 4.752634h2.411529l-.348994 1.840388h-2.409875l-1.971566 10.454431c-.3308 1.746665.238176 2.360128 1.190879 2.360128.269601 0 .547473-.059642.798881-.122692l-.35561 1.869358c-.259677.122692-.848501.245385-1.445594.245385m13.155745-8.882129c-3.47949.520894-5.482987 1.440119-6.076428 4.5042-.410844 2.143155.500451 3.244523 2.476897 3.244523.825069 0 1.687333-.214486 2.162424-.459613zm-4.11689 9.493547c-3.592769 0-4.941959-1.989951-4.370497-4.963813.847048-4.378232 4.625795-5.663444 8.805242-6.184338l.155545-.796661c.449731-2.325298-.56808-3.215584-2.241887-3.215584-1.339046 0-2.686546.520894-3.508233.980507l-.246844-1.714184c.929893-.551535 2.58003-1.225633 4.498991-1.225633 2.558052 0 4.649466 1.317556 3.85483 5.418318l-2.022095 10.477457c-1.237603.733678-2.88605 1.223931-4.925052 1.223931z" fill="#273978"/><path d="m465.217 226.836 4.753-24.457h2.583l-4.751 24.457z" fill="#273978"/><path d="m476.904541 207.200126c-.804582 0-1.330528-.671199-1.173899-1.493249.161576-.854254.931535-1.493249 1.737766-1.493249.801285 0 1.330528.638995 1.168952 1.493249-.15663.82205-.933183 1.493249-1.732819 1.493249zm-4.962689 19.63597 3.109512-16.435909h2.489588l-3.104566 16.435909zm9.715177.611418c-1.67356 0-2.871911-.365988-3.601941-1.223931l1.065775-1.95931c.451103.551535 1.315431 1.041788 2.646359 1.041788 1.336093 0 2.568879-.919224 2.835753-2.265718.33058-1.685245-.375345-2.361045-1.711438-3.464115-1.348145-1.162648-2.727282-2.662346-2.289953-4.900828.482096-2.447861 2.623976-4.347592 5.103324-4.347592 1.553035 0 2.670463.459613 3.354006 1.225633l-1.017566 1.714184c-.430442-.490253-1.239674-.949866-2.35538-.949866-1.179412 0-2.240021.980506-2.460408 2.114217-.301309 1.530338.614672 2.388281 1.89739 3.430069 1.48933 1.256273 2.72556 2.541485 2.226247 5.082971-.507922 2.575531-3.02687 4.502498-5.692168 4.502498m23.078848-.611418 2.361239-12.162496c.368727-1.903153-.418929-2.991659-2.00636-2.991659-1.061173 0-2.02021.436789-2.903078 1.306901l-2.688419 13.847254h-2.586283l2.352583-12.131297c.339298-1.745423-.52799-3.054057-2.304112-3.054057-1.121762 0-1.743232.155996-2.459913.467988l-2.858068 14.717366h-2.584552l3.07965-15.871737c1.39874-.77998 2.858069-1.247969 5.257392-1.247969 2.248717 0 3.434529.779981 3.976368 1.840754 1.327764-1.216769 2.790555-1.840754 4.753638-1.840754 2.523963 0 4.21353 1.747157 3.586867 4.95721l-2.359508 12.162496z" fill="#273978"/><path d="m355.79036 60.5303867h1.237305l-.330748-12.4697498c.034274-1.2219532.550104-1.7069641 1.650311-1.5698585 4.402544.7712187 8.808515 1.5424374 13.211059 2.31537-.466131-1.5167302-.933977-3.0283189-1.401822-4.5433352-.269054-.8157781-.23992-1.7069641.413006-2.229679 4.651034-3.5253265 9.300353-7.0455115 13.9531-10.5691242-1.071075-.4695865-2.145576-.9357454-3.218364-1.4053319-.604943-.3290533-.993957-.8791893-.826013-1.3230685.99053-3.0797335 1.979345-6.1663222 2.973302-9.2460556-2.532876.6872416-5.065753 1.3744832-7.596915 2.0634385-.661496.1542438-1.179039.0154244-1.40525-.4113166-.634076-1.2682264-1.264725-2.5347389-1.898801-3.7995376-2.090737 2.2571001-4.477947 4.7901252-6.568684 7.0472253-.932263.9168934-1.936502.1388194-1.770272-.6049782 1.155047-5.4242384 2.311807-10.8484767 3.466854-16.27100123-1.706864 1.04714364-3.412015 2.09257346-5.118879 3.13971713-.78831.4867247-1.283575.3907508-1.487508 0-1.759989-3.55103378-3.523406-7.10378136-5.281681-10.6531013-1.758276 3.55103376-3.516552 7.10378134-5.281682 10.6548151-.202219.3907508-.69577.4867247-1.484081 0-1.708577-1.04542983-3.415441-2.09257347-5.120592-3.13800329 1.156761 5.42252449 2.311807 10.84504909 3.468567 16.26757359.164517.7455114-.838008 1.5235854-1.768558.6084059-2.094164-2.2571002-4.481375-4.791839-6.572112-7.0489392-.634076 1.2665126-1.264724 2.5313113-1.8988 3.7978238-.224497.4301687-.740327.5672742-1.40525.4113166-2.529449-.6855277-5.064039-1.3744831-7.596916-2.0617247.992244 3.0814473 1.98106 6.1663222 2.973303 9.2477694.167944.4404516-.219356.9923014-.826013 1.3213548-1.071074.4695865-2.14729.9357453-3.220078 1.4053318 4.652747 3.5218989 9.30378 7.0455115 13.954813 10.5691242.652927.5227149.682061 1.413901.413007 2.229679-.466132 1.5133025-.935691 3.0283188-1.401822 4.5416214 4.402544-.769505 8.806801-1.5407237 13.209345-2.3102286 1.103635-.1405332 1.617751.3444777 1.653739 1.5681448l-.330748 12.4663221z" fill="#2d8e44"/><g fill="#273978"><path d="m50.528 307.791h-22.511v15.626h25.168v7.972h-36.068v-53.194h34.74v7.97h-23.84v13.733h22.511z"/><path d="m113.447942 309.684424c-.356099-6.867036-.803373-15.152768-.713918-22.333736h-.268365c-1.962845 6.470762-4.462418 13.653446-7.142622 20.360943l-8.7476475 23.045657h-8.4810035l-8.0354497-22.728295c-2.3206641-6.788124-4.4624185-14.049719-6.0691644-20.678305h-.1789096c-.2683644 6.945948-.6261836 15.389504-1.0717373 22.649383l-1.3383815 21.388511h-10.2683793l4.018585-53.19337h14.4624333l7.8565402 21.38851c2.1417544 6.235743 4.0168647 12.546966 5.5341558 18.467062h.2683644c1.6067459-5.760557 3.6607658-12.311946 5.9814299-18.545973l8.3020942-21.309599h14.283523l3.481857 53.19337h-10.712213z"/><path d="m169.736 307.791h-22.509v15.626h25.166v7.972h-36.068v-53.194h34.74v7.97h-23.838v13.733h22.509z"/><path d="m192.962601 302.307333h6.454831c7.340922 0 11.93837-3.486167 11.93837-8.794649 0-5.864822-4.597448-8.558678-11.672543-8.558678-3.448938 0-5.659053.237693-6.720658.475386zm-10.788156-23.614304c4.067498-.633849 10.169597-1.109235 16.447209-1.109235 8.578041 0 14.414312 1.267697 18.394905 4.2802 3.27172 2.456163 5.127399 6.180024 5.127399 10.696195 0 6.894826-5.216008 11.569459-10.788156 13.391774v.237693c4.244716 1.426159 6.809267 5.15002 8.312213 10.300039 1.857383 6.658855 3.448938 12.838879 4.687762 14.898887h-11.231202c-.884386-1.584622-2.298724-5.942331-3.978888-12.599463-1.680165-6.972334-4.510543-9.192527-10.699547-9.349267h-5.483539v21.94873h-10.788156zm99.03443 50.30171c-3.840873 1.263654-11.341935 3.005261-19.379892 3.005261-10.18038 0-17.858686-2.293489-23.575255-7.119444-5.358639-4.507892-8.48365-11.54653-8.394168-19.615004 0-16.848719 13.573841-27.681758 33.488908-27.681758 7.411579 0 13.21591 1.34274 15.984712 2.529027l-2.412592 7.831216c-3.302257-1.265373-7.322096-2.293489-13.663323-2.293489-12.857979 0-21.878525 6.722295-21.878525 19.140489 0 12.101851 8.395888 19.298661 20.897657 19.298661 3.928635 0 6.876403-.474515 8.304684-1.107201v-13.288139h-10.626073v-7.671325h21.253867z"/><path d="m292.213 331.389h11.004v-53.194h-11.004z"/><path d="m315.442999 331.388582v-53.19337h12.502398l15.535942 22.808922c4.019488 5.91838 7.502127 12.07521 10.270687 17.835767h.177229c-.714079-7.102056-.982503-13.969092-.982503-22.097001v-18.547688h10.179491v53.19337h-11.339224l-15.716612-23.359589c-3.838818-5.841183-7.858306-12.392573-10.804095-18.389864l-.268425.078911c.445654 6.867037.53685 13.890181.53685 22.651099v19.019443zm108.204285-2.393843c-3.839282 1.263654-11.340594 3.005261-19.378821 3.005261-10.180721 0-17.861005-2.293489-23.576045-7.119444-5.358818-4.507892-8.483935-11.54653-8.394449-19.615004 0-16.848719 13.574295-27.681758 33.488309-27.681758 7.413548 0 13.218074 1.34274 15.985248 2.529027l-2.409231 7.831216c-3.305809-1.265373-7.324062-2.293489-13.665502-2.293489-12.85841 0-21.879259 6.722295-21.879259 19.140489 0 12.101851 8.394449 19.298661 20.898358 19.298661 3.928767 0 6.874912-.474515 8.304963-1.107201v-13.288139h-10.62815v-7.671325h21.254579z"/><path d="m453.602 278.195h10.903v45.066h24.554v8.128h-35.457z"/><path d="m531.028 307.791h-22.51v15.626h25.168v7.972h-36.069v-53.194h34.74v7.97h-23.839v13.733h22.51z"/><path d="m572.144526 308.974219-4.70601-13.099348c-1.1534-3.237097-2.13225-6.867036-3.018691-9.944594h-.177973c-.888153 3.077558-1.776305 6.786409-2.84243 9.944594l-4.617024 13.099348zm-17.138433 7.340506-5.150942 15.073857h-11.279022l19.181697-53.19337h13.94348l19.448656 53.19337h-11.722244l-5.417901-15.073857zm55.668062 7.153165c1.51523.233563 3.832742.233563 6.062639.233563 14.264123.078423 22.733607-6.822774 22.733607-20.23476.089333-11.684982-7.577869-18.352616-21.30771-18.352616-3.477127 0-5.973306.235268-7.488536.548959zm-10.965662-44.786179c4.81369-.705804 10.965662-1.097917 17.474968-1.097917 11.231944 0 18.98848 2.040695 24.515119 6.11697 5.794638 4.158108 9.361099 10.433628 9.361099 19.452238 0 9.412428-3.655794 16.470471-9.361099 21.020692-5.971588 4.78208-15.511354 7.214888-27.191683 7.214888-6.418254 0-11.231944-.315396-14.798404-.705804z"/><path d="m693.64 307.791h-22.51v15.626h25.168v7.972h-36.068v-53.194h34.739v7.97h-23.839v13.733h22.51z"/><path d="m717.478286 302.307333h6.454831c7.339217 0 11.93837-3.486167 11.93837-8.794649 0-5.864822-4.599153-8.558678-11.672543-8.558678-3.448938 0-5.659053.237693-6.720658.475386zm-10.788156-23.614304c4.065794-.633849 10.167892-1.109235 16.447209-1.109235 8.578041 0 14.414312 1.267697 18.393201 4.2802 3.273424 2.456163 5.130806 6.180024 5.130806 10.696195 0 6.894826-5.219415 11.569459-10.789859 13.391774v.237693c4.244715 1.426159 6.809267 5.15002 8.313917 10.300039 1.855679 6.658855 3.447234 12.838879 4.686057 14.898887h-11.231201c-.884387-1.584622-2.298724-5.942331-3.978888-12.599463-1.681869-6.972334-4.510544-9.192527-10.701251-9.349267h-5.481835v21.94873h-10.788156zm50.09648 41.905269c3.571658 1.820831 8.931726 3.404161 14.558593 3.404161 7.057251 0 10.988657-2.929162 10.988657-7.283321 0-4.039214-3.038061-6.41421-10.720137-8.866652-9.916299-3.168382-16.257498-7.839207-16.257498-15.520082 0-8.71004 8.217395-15.360028 21.25954-15.360028 6.520212 0 11.344962 1.266664 14.470808 2.693383l-2.680034 7.837487c-2.142995-1.029165-6.34292-2.533329-11.968066-2.533329-6.967745 0-10.005805 3.324994-10.005805 6.412489 0 4.11838 3.483872 6.016656 11.523975 8.789206 10.449896 3.483327 15.541444 8.154153 15.541444 15.835027 0 8.551707-7.32405 15.993361-22.867215 15.993361-6.34292 0-12.952639-1.583331-16.257498-3.326715z"/></g></g></svg>