<svg xmlns="http://www.w3.org/2000/svg" viewBox="0 0 797 354">
  <g fill="none" fill-rule="evenodd">
    <path fill="#2D8E44" d="M138,145.518316 C127.721497,161.512324 106.288599,174 80.6999072,174 C34.5542097,174 0,139.605442 0,92.4991448 C0,45.3962686 34.5542097,11 80.6999072,11 C99.9456356,11 120.722895,18.2281766 134.281299,35.5374873 L120.504349,45.8341326 C114.379932,35.7547089 97.1028271,25.4580636 80.6999072,25.4580636 C40.8971729,25.4580636 17.0585586,56.7875738 17.0585586,92.4991448 C17.0585586,128.209005 40.8971729,159.538516 80.6999072,159.538516 C96.8825735,159.538516 113.505747,154.282437 125.097235,136.316331 L138,145.518316"/>
    <polygon fill="#2D8E44" points="157 169 172 169 172 4 157 4"/>
    <path fill="#2D8E44" d="M281.192288 110.096223C281.192288 90.5612821 268.677421 77.1701047 247.818166 77.1701047 228.935304 77.1701047 211.809426 93.1953031 211.809426 110.096223L281.192288 110.096223zM211.370609 121.950175C213.127592 142.583624 228.715896 158.828182 249.136333 158.828182 264.505227 158.828182 276.361868 150.268042 282.069923 141.048112L293.268338 150.268042C281.192288 165.63345 266.042802 172 249.136333 172 218.616238 172 196 148.951888 196 118 196 87.0481117 218.616238 64 247.818166 64 278.996487 64.2176452 297 87.2674706 297 115.365979L297 121.950175 211.370609 121.950175 211.370609 121.950175zM376.389859 118.219359C361.744233 118.219359 328.737819 119.316154 328.737819 139.951317 328.737819 153.561853 341.197352 158.828182 352.781424 158.828182 373.766889 158.828182 383.821891 143.901492 383.821891 125.682704L383.821891 118.219359 376.389859 118.219359zM383.821891 106.365408L383.821891 103.731387C383.821891 85.951317 375.297666 77.1701047 357.590486 77.1701047 345.569537 77.1701047 335.077658 81.341352 326.331581 89.2434148L317.588917 78.9266899C326.988603 69.2680419 341.634229 64 360.870479 64 380.982189 64 398.249078 75.4135195 398.249078 100.437575L398.249078 146.316154C398.249078 154.218216 399.124539 163.880292 400 169.367693L386.007984 169.367693C385.134229 164.31901 384.697352 158.170105 384.697352 152.682704L384.260475 152.682704C375.952982 166.29324 364.587348 172 348.192507 172 330.04845 172 313 161.90092 313 141.925547 313 108.558997 352.126108 106.365408 376.610004 106.365408L383.821891 106.365408 383.821891 106.365408zM439.904929 67.6248292C440.562121 73.0930811 440.562121 78.561333 440.562121 84.0312927L441.003673 84.0312927C447.35996 72.8744877 461.82676 65 475.420726 65 501.508201 65 514 79.6560081 514 105.029926L514 170 499.5332 170 499.5332 113.343309C499.5332 90.5925119 493.176913 78.1241461 471.694921 78.1241461 468.624599 78.1241461 440.562121 80.0914872 440.562121 117.498292L440.562121 170 426.095321 170 426.095321 90.155325C426.095321 84.6870731 425.436417 75.06213 425 67.6248292L439.904929 67.6248292"/>
    <path fill="#273978" d="M657.227406 90.7005976L586.435083 90.7005976 580.76504 125.557529C585.693945 124.075491 593.74695 123.334472 599.957405 123.334472 634.485475 123.334472 655.367701 146.077275 650.377034 181.431065 645.065551 219.007914 614.246598 242 578.227675 242 550.407582 242 531.391924 228.897277 527 201.950811L559.488228 193.546901C561.680758 206.152766 570.286184 213.817364 585.438322 213.817364 603.323403 213.817364 617.809889 200.958801 620.216869 183.903406 623.673794 159.425866 605.624016 150.033362 583.767332 150.033362 570.850615 150.033362 556.983459 153.246722 545.814933 158.438979L560.8933 64 661 64 657.227406 90.7005976M722.709201 213.812035C752.484639 213.812035 762.171038 173.260029 765.241625 151.498292 768.310498 129.739971 770.063406 89.1896724 740.287967 89.1896724 710.51767 89.1896724 700.82613 129.739971 697.757257 151.498292 694.688384 173.260029 692.938903 213.812035 722.709201 213.812035zM744.266708 61C763.863973 61 806.696259 68.6643394 795.013636 151.498292 783.3293 234.333953 738.336294 242 718.732174 242 699.133195 242 656.302623 234.333953 667.986959 151.498292 679.669582 68.6643394 724.664301 61 744.266708 61L744.266708 61zM21.6877661 207.146805C18.6722186 207.146805 17.0307589 211.588946 16.2032602 215.936097 15.387607 220.229706 15.2420755 224.670121 18.3490033 224.670121 21.4897756 224.670121 23.0043183 220.229706 23.8199715 215.936097 24.6491624 211.588946 24.7050059 207.146805 21.6877661 207.146805zM17.9039478 227C13.1826359 227 12.3077548 222 13.4500077 216 14.5854917 210.034542 17.3725886 205 22.0955927 205 26.820289 205 27.6884012 210.034542 26.5529172 216 25.4106643 222 22.628644 227 17.9039478 227L17.9039478 227zM33.3768571 227C29.905317 227 28.4427782 225.240728 29.1908482 221.498838L31.4916499 210 34.1656023 210 31.8029036 221.809803C31.3890776 223.88004 32.2238035 224.960687 33.942773 224.960687 34.9614215 224.960687 35.8138323 224.680647 36.4929313 224.312986L39.3561118 210 42 210 38.8750834 225.608388C37.6778176 226.350581 35.7961474 227 33.3768571 227M46.6665843 226C44.7066054 226 43.6240405 224.617057 44.1195585 221.909699L46.0353512 211.4699 44.6734656 211.4699 45.003285 209.66388 46.3667486 209.66388 47.0500585 205.934783 49.5544761 205 48.6991551 209.66388 51 209.66388 50.6686026 211.4699 48.3661796 211.4699 46.4851048 221.729097C46.1710663 223.443144 46.7139268 224.045151 47.6229026 224.045151 47.878552 224.045151 48.145248 223.986622 48.3851166 223.924749L48.0458288 225.759197C47.7980698 225.879599 47.2346942 226 46.6665843 226M53.5984043 227C51.9274093 227 50.7279412 226.636572 50 225.784628L51.0652378 223.839018C51.514393 224.386696 52.3800063 224.873521 53.7119837 224.873521 55.0439612 224.873521 56.2795682 223.960724 56.5428661 222.623645 56.875 220.950184 56.1694305 220.279109 54.8357322 219.183753 53.4865457 218.029233 52.1081039 216.540022 52.5469337 214.317192 53.028786 211.886447 55.1678661 210 57.6459637 210 59.1947747 210 60.3133605 210.456399 61 211.217063L59.9812265 212.91926C59.5510013 212.432435 58.7421777 211.976037 57.6253129 211.976037 56.4464956 211.976037 55.3881414 212.949687 55.1661452 214.07547 54.8649875 215.595108 55.7822278 216.447052 57.0642991 217.481555 58.5528786 218.729044 59.7884856 220.00527 59.2877034 222.528985 58.7834793 225.086507 56.2640801 227 53.5984043 227M65.6675856 226C63.7057674 226 62.6230584 224.617057 63.1202207 221.909699L65.0346901 211.4699 63.6710449 211.4699 64.0040648 209.66388 65.3661317 209.66388 66.0511108 205.934783 68.5527053 205 67.6972705 209.66388 70 209.66388 69.6669802 211.4699 67.3658289 211.4699 65.4845036 221.729097C65.168845 223.443144 65.7117778 224.045151 66.6208746 224.045151 66.8797147 224.045151 67.1448679 223.986622 67.3831902 223.924749L67.0470137 225.759197C66.7976434 225.879599 66.2326145 226 65.6675856 226M78.8993839 217.572835C75.304084 218.090087 73.2321571 219.002884 72.6207115 222.04554 72.1944466 224.17371 73.1360728 225.267376 75.1817949 225.267376 76.0325777 225.267376 76.9235413 225.05439 77.4144447 224.810977L78.8993839 217.572835zM74.6454698 227C70.9348687 227 69.5390259 225.023963 70.1312546 222.070896 71.0047482 217.723277 74.9075179 216.447052 79.2295645 215.9298L79.3885404 215.138709C79.853239 212.829671 78.8032996 211.94561 77.0720352 211.94561 75.6884212 211.94561 74.2943254 212.462862 73.4487835 212.91926L73.1919764 211.217063C74.1528194 210.669385 75.857879 210 77.8407096 210 80.4839014 210 82.6431778 211.308342 81.8238407 215.380432L79.7361909 225.784628C78.4556492 226.513175 76.7523365 227 74.6454698 227L74.6454698 227zM91.8840115 226L94.2525166 213.922547C94.6417646 211.94148 93.871957 210.920826 92.0595206 210.920826 90.7770872 210.920826 90.1393459 211.137694 89.4581618 211.414802L86.5961457 226 84 226 87.0913944 210.239243C88.5267467 209.464716 90.3374454 209 92.6538191 209 95.7834432 209 97.5420104 210.394148 96.8504 213.922547L94.4818949 226 91.8840115 226M107.653083 212.207663C107.250811 212.085163 106.812894 211.964341 106.203545 211.964341 103.11776 211.964341 101.534131 215.194658 100.875559 218.547476 100.120237 222.381905 100.665087 225.068522 103.353692 225.068522 103.995291 225.068522 104.672534 225.038316 105.191923 224.736261L107.653083 212.207663zM102.851276 227C98.7861191 227 97.3060287 223.801566 98.2972819 218.757237 99.3598239 213.355475 102.544055 210.214096 106.088125 210.214096 106.884183 210.214096 107.525782 210.365124 107.987461 210.516152L109.464157 203 112 203 107.518992 225.793455C106.466634 226.488183 104.837177 227 102.851276 227L102.851276 227zM117.163941 207.036338C116.328169 207.036338 115.780712 206.353937 115.942032 205.518169 116.111932 204.649659 116.916814 204 117.75087 204 118.584926 204 119.139248 204.649659 118.969347 205.518169 118.808028 206.353937 117.997998 207.036338 117.163941 207.036338zM112 227L115.234972 210.289803 117.829813 210.289803 114.594842 227 112 227 112 227zM125.883729 226L128.253887 213.922547C128.643121 211.94148 127.873341 210.920826 126.059232 210.920826 124.776845 210.920826 124.139126 211.137694 123.457966 211.414802L120.596053 226 118 226 121.091284 210.239243C122.528322 209.464716 124.337219 209 126.655247 209 129.781284 209 131.543263 210.394148 130.84994 213.922547L128.479782 226 125.883729 226M142.291853 212.32486C141.935964 212.107712 141.293669 211.95433 140.53105 211.95433 137.907638 211.95433 136.280717 214.711762 135.474035 218.927187 134.757172 222.682464 135.419804 225.44162 137.648348 225.44162 138.258443 225.44162 138.878707 225.381301 139.897228 224.853942L142.291853 212.32486zM135.218133 234C133.203123 234 131.806682 233.501939 131 232.757432L132.162571 230.835847C132.682847 231.301163 133.862365 231.828522 135.236775 231.828522 137.616148 231.828522 138.912601 229.998277 139.375257 227.582077L139.571844 226.55838C138.768551 227.085739 137.841545 227.302887 136.743372 227.302887 133.477666 227.302887 131.957511 224.078414 132.925191 219.021973 133.95049 213.658768 136.784046 210 141.05641 210 143.132429 210 144.306864 210.560103 145 211.240844L141.929185 227.302887C141.124198 231.516588 138.605859 234 135.218133 234L135.218133 234zM161.113784 227C156.668004 227 155.193035 222.217617 156.408841 216 157.553334 210.157168 161.005945 205 165.516081 205 167.20673 205 168.274691 205.469775 169 206.24525L167.989437 208.046632C167.535467 207.64076 166.742323 207.207254 165.488251 207.207254 162.202618 207.207254 160.16062 211.557858 159.290945 216 158.438663 220.350604 158.910027 224.670121 162.040858 224.670121 163.293191 224.670121 164.281142 224.265976 164.936877 223.801382L165.209955 225.758204C164.343758 226.502591 162.931406 227 161.113784 227M175.367529 211.825594C172.823722 211.825594 171.643353 215.201253 170.986043 218.485632 170.32699 221.768321 170.252018 224.96142 172.734802 224.96142 175.245482 224.96142 176.385749 221.768321 177.044803 218.485632 177.703857 215.201253 177.879953 211.825594 175.367529 211.825594zM172.325073 227C168.306241 227 167.397863 223.228796 168.342855 218.516058 169.307026 213.708661 171.714838 210 175.702286 210 179.719375 210 180.606831 213.708661 179.644403 218.516058 178.699411 223.228796 176.312521 227 172.325073 227L172.325073 227zM188.885409 226L191.253812 213.922547C191.643044 211.94148 190.873269 210.920826 189.057436 210.920826 187.775058 210.920826 187.139081 211.137694 186.457927 211.414802L183.596034 226 181 226 184.091261 210.239243C185.528289 209.464716 187.337172 209 189.655184 209 192.782935 209 194.543164 210.394148 193.849846 213.922547L191.481443 226 188.885409 226M199.666012 226C197.705774 226 196.623066 224.617057 197.120227 221.909699L199.034695 211.4699 197.672629 211.4699 198.002492 209.66388 199.366136 209.66388 200.051115 205.934783 202.554285 205 201.698851 209.66388 204 209.66388 203.668559 211.4699 201.365832 211.4699 199.484508 221.729097C199.170428 223.443144 199.71336 224.045151 200.622456 224.045151 200.878139 224.045151 201.144871 223.986622 201.383193 223.924749L201.045438 225.759197C200.797647 225.879599 200.234197 226 199.666012 226M211.900338 211.295656C210.841535 210.832811 209.537573 210.956695 208.567596 211.481482L205.654113 226 203 226 206.160419 210.244362C207.839225 209.378895 209.301297 208.945301 213 209.005522L211.900338 211.295656M217.164295 207.036338C216.328465 207.036338 215.780971 206.353937 215.942302 205.518169 216.112214 204.649659 216.917151 204 217.75298 204 218.585378 204 219.138021 204.649659 218.969825 205.518169 218.808494 206.353937 217.998409 207.036338 217.164295 207.036338zM212 227L215.235193 210.289803 217.830213 210.289803 214.596736 227 212 227 212 227zM226.133151 211.935813C225.45019 211.935813 224.778776 212.02643 224.008383 212.477835L221.66091 224.764788C222.010639 224.9477 222.637511 225.100406 223.320473 225.100406 225.994579 225.100406 227.515571 222.261082 228.266168 218.336037 228.934282 214.832191 228.450931 211.935813 226.133151 211.935813zM222.896509 227C220.817931 227 219.673063 226.4563 219 225.793455L223.355116 203 225.819715 203 224.31852 210.846735C224.895903 210.487624 225.808167 210.214096 226.995926 210.214096 230.173181 210.214096 231.657879 213.325269 230.724169 218.215215 229.726122 223.437421 226.995926 227 222.896509 227L222.896509 227zM237.377866 227C233.90602 227 232.441583 225.240728 233.191488 221.498838L235.492492 210 238.16668 210 235.802005 221.809803C235.388142 223.88004 236.22471 224.960687 237.943831 224.960687 238.96257 224.960687 239.815056 224.680647 240.494214 224.312986L243.357647 210 246 210 242.876577 225.608388C241.679205 226.350581 239.797369 227 237.377866 227M251.667586 226C249.705767 226 248.623058 224.617057 249.120221 221.909699L251.036268 211.4699 249.672623 211.4699 250.004065 209.66388 251.36771 209.66388 252.051111 205.934783 254.555862 205 253.698849 209.66388 256 209.66388 255.668558 211.4699 253.367407 211.4699 251.486082 221.729097C251.172002 223.443144 251.714934 224.045151 252.625609 224.045151 252.879715 224.045151 253.146446 223.986622 253.384768 223.924749L253.047014 225.759197C252.799222 225.879599 252.235771 226 251.667586 226M262.367529 211.825594C259.823722 211.825594 258.643353 215.201253 257.986043 218.485632 257.32699 221.768321 257.252018 224.96142 259.734802 224.96142 262.245482 224.96142 263.385749 221.768321 264.043059 218.485632 264.703857 215.201253 264.879953 211.825594 262.367529 211.825594zM259.325073 227C255.306241 227 254.397863 223.228796 255.342855 218.516058 256.307026 213.708661 258.714838 210 262.702286 210 266.719375 210 267.606831 213.708661 266.644403 218.516058 265.697667 223.228796 263.310778 227 259.325073 227L259.325073 227zM277.900142 211.295656C276.841151 210.832811 275.538735 210.956695 274.566809 211.481482L271.654584 226 269 226 272.160981 210.244362C273.840085 209.378895 275.298863 208.945301 279 209.005522L277.900142 211.295656M280.600125 227C278.927409 227 277.727941 226.636572 277 225.784628L278.065238 223.839018C278.514393 224.386696 279.380006 224.873521 280.711984 224.873521 282.043961 224.873521 283.281289 223.960724 283.544587 222.623645 283.875 220.950184 283.169431 220.279109 281.837453 219.183753 280.486546 218.029233 279.108104 216.540022 279.546934 214.317192 280.028786 211.886447 282.167866 210 284.645964 210 286.196496 210 287.31336 210.456399 288 211.217063L286.981227 212.91926C286.552722 212.432435 285.743899 211.976037 284.625313 211.976037 283.448217 211.976037 282.389862 212.949687 282.167866 214.07547 281.864987 215.595108 282.782228 216.447052 284.064299 217.481555 285.552879 218.729044 286.786765 220.00527 286.287703 222.528985 285.781758 225.086507 283.265801 227 280.600125 227M301.667586 226C299.705767 226 298.623058 224.617057 299.120221 221.909699L301.03469 211.4699 299.672623 211.4699 300.004065 209.66388 301.36771 209.66388 302.051111 205.934783 304.554284 205 303.698849 209.66388 306 209.66388 305.668558 211.4699 303.367407 211.4699 301.484504 221.729097C301.170423 223.443144 301.713356 224.045151 302.622453 224.045151 302.879715 224.045151 303.144868 223.986622 303.384768 223.924749L303.047014 225.759197C302.797643 225.879599 302.234193 226 301.667586 226M313.368022 211.825594C310.822309 211.825594 309.643609 215.201253 308.984513 218.485632 308.325418 221.768321 308.250441 224.96142 310.733383 224.96142 313.244224 224.96142 314.384564 221.768321 315.043659 218.485632 315.702755 215.201253 315.878863 211.825594 313.368022 211.825594zM310.323628 227C306.306283 227 305.397847 223.228796 306.3429 218.516058 307.305389 213.708661 309.713354 210 313.701057 210 317.720146 210 318.607658 213.708661 317.643426 218.516058 316.698373 223.228796 314.311331 227 310.323628 227L310.323628 227zM333.113784 227C328.668004 227 327.193035 222.217617 328.408841 216 329.553334 210.157168 333.005945 205 337.516081 205 339.20673 205 340.274691 205.469775 341 206.24525L339.989437 208.046632C339.537206 207.64076 338.744062 207.207254 337.48999 207.207254 334.202618 207.207254 332.16062 211.557858 331.290945 216 330.438663 220.350604 330.910027 224.670121 334.040858 224.670121 335.29493 224.670121 336.282881 224.265976 336.936877 223.801382L337.209955 225.758204C336.345498 226.502591 334.931406 227 333.113784 227"/>
    <polyline fill="#273978" points="340 227 344.533 203 347 203 342.467 227 340 227"/>
    <path fill="#273978" d="M355.323657 211.976037C353.459859 211.976037 351.615045 214.07547 350.876429 217.78413L357.218518 216.99473C357.825978 213.617381 357.189181 211.976037 355.323657 211.976037zM350.633099 219.488018C350.118829 223.019191 351.204319 224.902257 353.627256 224.902257 355.337463 224.902257 356.659379 224.356269 357.370383 223.89818L357.648227 225.784628C356.647299 226.452322 354.954349 227 353.024973 227 349.235251 227 347.162639 224.295416 348.320609 218.455205 349.400922 213.01054 352.360564 210 355.777527 210 359.318742 210 360.809781 212.829671 359.568975 218.455205L350.633099 219.488018 350.633099 219.488018zM368.898627 217.572835C365.303591 218.090087 363.231817 219.002884 362.620416 222.04554 362.194183 224.17371 363.13574 225.267376 365.181311 225.267376 366.032032 225.267376 366.92293 225.05439 367.415544 224.810977L368.898627 217.572835zM364.646773 227C360.936445 227 359.538958 225.023963 360.131143 222.070896 361.006319 217.723277 364.908801 216.447052 369.228783 215.9298L369.387747 215.138709C369.852412 212.829671 368.804296 211.94561 367.071413 211.94561 365.686154 211.94561 364.293907 212.462862 363.448427 212.91926L363.191639 211.217063C364.152412 210.669385 365.859093 210 367.838284 210 370.481281 210 372.642145 211.308342 371.824615 215.380432L369.733625 225.784628C368.453178 226.513175 366.751737 227 364.646773 227L364.646773 227zM380.886069 226L383.25467 213.922547C383.643934 211.94148 382.872357 210.920826 381.059847 210.920826 379.777362 210.920826 379.139595 211.137694 378.458383 211.414802L375.596251 226 373 226 376.09152 210.239243C377.528668 209.464716 379.337702 209 381.65417 209 384.783921 209 386.544297 210.394148 385.849183 213.922547L383.48232 226 380.886069 226M402.116813 227C397.667301 227 396.193987 222.217617 397.408123 216 398.552681 210.157168 402.005489 205 406.514143 205 408.206627 205 409.276389 205.469775 410 206.24525L408.98938 208.046632C408.538862 207.64076 407.742194 207.207254 406.48979 207.207254 403.200491 207.207254 401.158376 211.557858 400.290391 216 399.438061 220.350604 399.909452 224.670121 403.038722 224.670121 404.294605 224.670121 405.282612 224.265976 405.936645 223.801382L406.209739 225.758204C405.343493 226.502591 403.93106 227 402.116813 227M416.897848 217.572835C413.302027 218.090087 411.231548 219.002884 410.620014 222.04554 410.19194 224.17371 411.135449 225.267376 413.181468 225.267376 414.028879 225.267376 414.925214 225.05439 415.412694 224.810977L416.897848 217.572835zM412.643318 227C408.933927 227 407.537882 225.023963 408.131943 222.070896 409.003816 217.723277 412.907151 216.447052 417.231571 215.9298L417.388823 215.138709C417.851841 212.829671 416.803497 211.94561 415.071982 211.94561 413.68642 211.94561 412.292123 212.462862 411.446458 212.91926L411.191361 211.217063C412.150596 210.669385 413.85765 210 415.83902 210 418.482595 210 420.642184 211.308342 419.824476 215.380432L417.734776 225.784628C416.454049 226.513175 414.752237 227 412.643318 227L412.643318 227zM428.630963 210.885777C427.766147 210.885777 427.174703 211.041179 426.724242 211.292615L424.226077 224.363841C424.602607 224.48956 425.037594 224.644962 425.687495 224.644962 428.81493 224.644962 430.453437 221.096908 431.0999 217.73394 431.818574 213.964132 431.387026 210.885777 428.630963 210.885777zM425.790654 226.530738C424.986015 226.530738 424.375658 226.340415 423.906284 226.185013L422.603043 233 420 233 424.353306 210.257184C425.54995 209.502874 427.164387 209 429.083143 209 433.202623 209 434.707024 212.296617 433.696066 217.575045 432.619775 223.1992 429.382304 226.530738 425.790654 226.530738L425.790654 226.530738zM441.163186 207.036338C440.327258 207.036338 439.779699 206.353937 439.941049 205.518169 440.107548 204.649659 440.916012 204 441.748507 204 442.582718 204 443.140576 204.649659 442.968928 205.518169 442.807578 206.353937 441.997397 207.036338 441.163186 207.036338zM436 227L439.232141 210.289803 441.829182 210.289803 438.593608 227 436 227 436 227zM446.666077 226C444.70429 226 443.623177 224.617057 444.120331 221.909699L446.036348 211.4699 444.674303 211.4699 445.004161 209.66388 446.366206 209.66388 447.051174 205.934783 449.554307 205 448.698886 209.66388 451 209.66388 450.666986 211.4699 448.36745 211.4699 446.486155 221.729097C446.170501 223.443144 446.713425 224.045151 447.622507 224.045151 447.879765 224.045151 448.144914 223.986622 448.38481 223.924749L448.045483 225.759197C447.797695 225.879599 447.235832 226 446.666077 226M459.899274 217.572835C456.304495 218.090087 454.234616 219.002884 453.621512 222.04554 453.197056 224.17371 454.138545 225.267376 456.180477 225.267376 457.032884 225.267376 457.923718 225.05439 458.41455 224.810977L459.899274 217.572835zM455.645977 227C451.934167 227 450.540273 225.023963 451.130669 222.070896 452.005783 217.723277 455.909734 216.447052 460.22766 215.9298L460.38836 215.138709C460.852991 212.829671 459.801457 211.94561 458.07219 211.94561 456.688777 211.94561 455.29663 212.462862 454.447717 212.91926L454.192694 211.217063C455.153398 210.669385 456.85821 210 458.840753 210 461.483562 210 463.644272 211.308342 462.823307 215.380432L460.734213 225.784628C459.455604 226.513175 457.752538 227 455.645977 227L455.645977 227z"/>
    <polyline fill="#273978" points="465 227 469.535 203 472 203 467.467 227 465 227"/>
    <path fill="#273978" d="M476.165962 207.036338C475.328424 207.036338 474.780935 206.353937 474.943981 205.518169 475.112175 204.649659 475.913671 204 476.752926 204 477.587031 204 478.137953 204.649659 477.969759 205.518169 477.806713 206.353937 476.998352 207.036338 476.165962 207.036338zM471 227L474.236879 210.289803 476.828441 210.289803 473.596711 227 471 227 471 227zM480.600688 227C478.927711 227 477.729776 226.636572 477 225.784628L478.065404 223.839018C478.516351 224.386696 479.380379 224.873521 480.710843 224.873521 482.046472 224.873521 483.27883 223.960724 483.545611 222.623645 483.876076 220.950184 483.170396 220.279109 481.834768 219.183753 480.487091 218.029233 479.108434 216.540022 479.545611 214.317192 480.027539 211.886447 482.168675 210 484.64716 210 486.199656 210 487.316695 210.456399 488 211.217063L486.982788 212.91926C486.552496 212.432435 485.743546 211.976037 484.628227 211.976037 483.449225 211.976037 482.388985 212.949687 482.168675 214.07547 481.86747 215.595108 482.783133 216.447052 484.065404 217.481555 485.554217 218.729044 486.790017 220.00527 486.290878 222.528985 485.783133 225.086507 483.26506 227 480.600688 227M503.839123 226L506.224787 213.922547C506.597328 212.032702 505.801524 210.951807 504.197673 210.951807 503.125523 210.951807 502.156566 211.385542 501.264566 212.24957L498.548339 226 495.935303 226 498.312221 213.953528C498.655029 212.22031 497.77877 210.920826 495.984275 210.920826 494.850911 210.920826 494.223013 211.075731 493.498918 211.385542L490.611287 226 488 226 491.111506 210.239243C492.524714 209.464716 493.999138 209 496.423279 209 498.695256 209 499.893335 209.774527 500.440778 210.827883 501.782276 209.619621 503.260198 209 505.243586 209 507.793657 209 509.500701 210.73494 508.867555 213.922547L506.483641 226 503.839123 226"/>
    <path fill="#2D8E44" d="M355.5,60 L356.727305,60 L356.399231,47.6395141 C356.433228,46.4282681 356.944888,45.947507 358.036204,46.0834112 C362.403167,46.8478723 366.77353,47.6140321 371.140493,48.3784932 C370.678128,46.8750531 370.214064,45.3767094 369.75,43.8749681 C369.483121,43.0663382 369.512018,42.182961 370.159668,41.6648263 C374.773112,38.1703899 379.384856,34.6810499 384,31.1883122 C382.937582,30.7228404 381.871764,30.2607662 380.807646,29.7952943 C380.207593,29.4691243 379.821723,28.9238087 379.98831,28.4838189 C380.970834,25.4310711 381.951658,22.3715281 382.937582,19.3187803 C380.425176,20 377.91277,20.6812197 375.402064,21.3641383 C374.745914,21.5170305 374.232554,21.3794275 374.008171,20.9564257 C373.37922,19.699312 372.753668,18.4438971 372.124717,17.1901809 C370.050877,19.4275036 367.68296,21.9383335 365.60912,24.1756562 C364.684391,25.0845154 363.688268,24.3132592 363.853155,23.5759789 C364.998867,18.1992695 366.146278,12.8225601 367.29199,7.44754948 C365.59892,8.48551771 363.907551,9.52178714 362.214482,10.5597554 C361.432542,11.0422152 360.94128,10.9470823 360.738996,10.5597554 C358.99323,7.03983691 357.244065,3.51821966 355.5,1.13686838e-13 C353.755935,3.51991846 352.011869,7.04153572 350.261004,10.5614542 C350.06042,10.9487811 349.570858,11.043914 348.788918,10.5614542 C347.094149,9.52518474 345.40108,8.48721651 343.70971,7.45094708 C344.857122,12.8259577 346.002833,18.2009683 347.150245,23.5759789 C347.313432,24.314958 346.319009,25.0862142 345.39598,24.1790538 C343.31874,21.9417311 340.950823,19.4292024 338.876983,17.1918797 C338.248032,18.4472947 337.62248,19.7010108 336.993529,20.9564257 C336.770846,21.3828251 336.259185,21.5187293 335.599636,21.3641383 C333.09063,20.6846173 330.576524,20.0016988 328.064118,19.3204791 C329.048342,22.3749257 330.029166,25.4327699 331.01339,28.4872165 C331.179977,28.9238087 330.795807,29.4708231 330.194053,29.7969931 C329.131635,30.262465 328.064118,30.7245392 327,31.190011 C331.615144,34.6810499 336.228588,38.1737875 340.842031,41.6665251 C341.489681,42.1846598 341.518579,43.068037 341.2517,43.8766669 C340.789336,45.3767094 340.323572,46.8784507 339.861207,48.3784932 C344.22817,47.6157309 348.596833,46.8512699 352.963796,46.0885076 C354.058511,45.9492058 354.568472,46.4299669 354.604169,47.6429117 L354.276094,60 L355.5,60"/>
    <polyline fill="#273978" points="41.8 263.891 12 263.891 12 248 91 248 91 263.891 60.89 263.891 60.89 352 41.8 352 41.8 263.891"/>
    <path fill="#273978" d="M109.634447 309.884283C109.634447 327.402476 118.46354 341.342564 133.563236 341.342564 148.789404 341.342564 157.363844 327.276089 157.363844 309.245519 157.363844 293.003147 149.302127 277.659144 133.563236 277.659144 117.950817 277.659144 109.634447 292.108194 109.634447 309.884283zM174 308.606755C174 337.506563 156.468287 354 132.667679 354 108.354349 354 93 335.460468 93 310.137056 93 283.667626 109.634447 265 133.946069 265 159.154956 265 174 284.053617 174 308.606755L174 308.606755zM200.61966 307.02567C202.541764 307.537365 205.103429 307.665716 208.302945 307.665716 220.083527 307.665716 227.252086 301.89846 227.252086 291.775813 227.252086 282.168283 220.596545 277.041072 209.712032 277.041072 205.358227 277.041072 202.286965 277.427838 200.61966 277.811181L200.61966 307.02567zM185 266.791786C190.636348 265.766686 198.444467 265 209.070761 265 220.596545 265 229.044226 267.431831 234.550609 272.043925 239.672229 276.272675 243 283.065031 243 291.135767 243 299.334855 240.441755 306.128922 235.574933 310.739304 229.300734 317.018254 219.443966 319.965203 208.302945 319.965203 205.358227 319.965203 202.670018 319.840274 200.61966 319.45522L200.61966 352 185 352 185 266.791786 185 266.791786zM321.849508 298.723051C324.169789 299.340748 327.257798 299.494745 331.123794 299.494745 345.341288 299.494745 353.993185 292.53581 353.993185 280.32046 353.993185 268.721095 345.956838 262.537277 332.823396 262.537277 327.567283 262.537277 323.860304 263.000978 321.849508 263.46639L321.849508 298.723051zM303 250.166219C309.798407 248.927402 319.224871 248 332.050539 248 345.956838 248 356.156159 250.937912 362.800679 256.505744 368.983536 261.611586 373 269.804204 373 279.545343 373 289.443901 369.910281 297.639941 364.036909 303.207773 356.465644 310.784405 344.566721 314.338304 331.123794 314.338304 327.567283 314.338304 324.323677 314.184307 321.849508 313.722317L321.849508 353 303 353 303 250.166219 303 250.166219zM400.60056 304.975471L409.938009 304.975471C420.549601 304.975471 427.20042 299.334855 427.20042 290.752424 427.20042 281.269823 420.549601 276.914432 410.322302 276.914432 405.333333 276.914432 402.136021 277.296064 400.60056 277.681118L400.60056 304.975471zM385 266.791786C390.883942 265.766686 399.707294 265 408.785132 265 421.190088 265 429.630855 267.048488 435.384992 271.917285 440.116058 275.887621 442.80098 281.913292 442.80098 289.21563 442.80098 300.365088 435.255187 307.92413 427.20042 310.871078L427.20042 311.25271C433.337141 313.559612 437.046843 319.58186 439.219376 327.91101 441.907714 338.673702 444.208344 348.666286 446 352L429.755537 352C428.479686 349.438106 426.431835 342.390759 424.003108 331.626355 421.570965 320.353679 417.482094 316.764974 408.532353 316.50656L400.60056 316.50656 400.60056 352 385 352 385 266.791786 385 266.791786zM467.634798 309.884283C467.634798 327.402476 476.464077 341.342564 491.564092 341.342564 506.790581 341.342564 515.366911 327.276089 515.366911 309.245519 515.366911 293.003147 507.303315 277.659144 491.564092 277.659144 475.951343 277.659144 467.634798 292.108194 467.634798 309.884283zM532 308.606755C532 337.506563 514.469626 354 490.668516 354 466.356382 354 451 335.460468 451 310.137056 451 283.667626 467.634798 265 491.948642 265 517.15977 265 532 284.053617 532 308.606755L532 308.606755zM560.201111 266L576 266 576 322.14086C576 346.034786 564.441595 354 547.229211 354 542.863503 354 537.343326 353.22956 534 351.94435L535.928116 339.226089C538.497794 339.998245 541.96463 340.766969 545.688776 340.766969 554.679219 340.766969 560.201111 336.659101 560.201111 321.627805L560.201111 266"/>
    <polyline fill="#273978" points="638.166 313.847 605.712 313.847 605.712 339.112 642 339.112 642 352 590 352 590 266 640.082 266 640.082 278.882 605.712 278.882 605.712 301.089 638.166 301.089 638.166 313.847"/>
    <path fill="#273978" d="M717.233202,350.158544 C713.525591,352.077562 705.343572,354 694.98412,354 C667.621916,354 651,336.841725 651,310.586075 C651,282.161696 670.690814,265 697.030052,265 C707.387796,265 714.804726,267.177281 718,268.841456 L714.54685,281.390326 C710.456694,279.597875 704.832942,278.058556 697.668765,278.058556 C680.151968,278.058556 667.492124,289.074948 667.492124,309.819836 C667.492124,328.772273 678.616665,340.936313 697.540681,340.936313 C703.932937,340.936313 710.584778,339.656968 714.676642,337.73624 L717.233202,350.158544"/>
    <polyline fill="#273978" points="752.52 279.14 728 279.14 728 266 793 266 793 279.14 768.226 279.14 768.226 352 752.52 352 752.52 279.14"/>
  </g>
</svg>
