<svg viewBox="0 0 801 351" xmlns="http://www.w3.org/2000/svg"><g fill="none" fill-rule="evenodd"><path d="m138.817264 146.178477c-10.339374 16.050612-31.899203 28.582482-57.6394356 28.582482-46.4189817 0-81.1778284-34.516283-81.1778284-81.7892916 0-47.2695761 34.7588467-81.7875751 81.1778284-81.7875751 19.3597056 0 40.2600126 7.2537575 53.8987116 24.6243269l-13.85854 10.3330857c-6.160687-10.1150954-23.5401103-20.4481811-40.0401716-20.4481811-40.0384542 0-64.0182456 31.4403873-64.0182456 67.2783436 0 35.8362396 23.9797914 67.2766276 64.0182456 67.2766276 16.2785032 0 33.0001226-5.27468 44.6602576-23.30437z" fill="#2d8e44"/><path d="m158.116 170.906h14.709v-166.618h-14.709z" fill="#2d8e44"/><path d="m282.633199 111.209167c0-19.6116495-12.529846-33.0571305-33.414067-33.0571305-18.905463 0-36.051839 16.089845-36.051839 33.0571305zm-69.905249 11.900498c1.759087 20.714471 17.366048 37.022816 37.810926 37.022816 15.38729 0 27.258122-8.593753 32.973009-17.849887l11.211818 9.256134c-12.090504 15.425743-27.258122 21.817293-44.184827 21.817293-30.556624 0-53.199932-23.138615-53.199932-54.212042 0-31.0734271 22.643308-54.2120418 51.880188-54.2120418 31.215638.2184998 49.2407 23.358835 49.2407 51.5676778v6.61005zm165.520875-3.745466c-14.753045 0-48.001545 1.101102-48.001545 21.817293 0 13.663981 12.550918 18.950989 24.219954 18.950989 21.139383 0 31.268133-14.985303 31.268133-33.27563v-7.492652zm7.486542-11.900498v-2.644364c0-17.8498865-8.586746-26.6673005-26.423799-26.6673005-12.109117 0-22.677949 4.1893469-31.488174 12.1224388l-8.806787-10.3572355c9.468628-9.6965747 24.221672-14.9853026 43.59901-14.9853026 20.25922 0 37.652754 11.458337 37.652754 36.5806548v46.05873c0 7.933092.881882 17.633107 1.763764 23.142055h-14.094641c-.880163-5.068507-1.320245-11.241557-1.320245-16.752226h-.440081c-8.368425 13.665701-19.81742 19.39487-36.332509 19.39487-18.277134 0-35.450627-10.138736-35.450627-30.192546 0-33.497571 39.413079-35.699774 64.076552-35.699774zm57.021386-39.2853383c.660713 5.4870656.660713 10.9741312.660713 16.4611969h.443916c6.39033-11.1934768 20.934611-19.095057 34.601383-19.095057 26.227194 0 38.785896 14.7064326 38.785896 40.1676514v65.193605h-14.544281v-56.851621c0-22.8290715-6.39033-35.3420488-27.987374-35.3420488-3.086767 0-31.29954 1.9758235-31.29954 39.5113278v52.682342h-14.544281v-80.1193836c0-5.4870656-.662434-15.1451237-1.101188-22.6080127z" fill="#2d8e44"/><path d="m660.475945 91.5378872h-70.904679l-5.679041 35.0622158c4.936728-1.490767 13.002513-2.23615 19.222825-2.23615 34.58287 0 55.498238 22.876743 50.499651 58.438743-5.319913 37.798151-36.18778 60.925645-72.263869 60.925645-27.864246 0-46.910084-13.17989-51.308978-40.285052l32.53979-8.453403c2.19601 12.680105 10.815094 20.389842 25.991279 20.389842 17.913467 0 32.422945-12.934291 34.833745-30.090131 3.462411-24.621696-14.616014-34.069516-36.507386-34.069516-12.937217 0-26.826383 3.232285-38.012634 8.455121l15.102298-94.9951609h100.26558zm65.686146 123.8418408c29.859214 0 39.572866-40.783119 42.652092-62.66888 3.077508-21.882326 4.835348-62.6637276-25.023866-62.6637276-29.854059 0-39.572866 40.7814016-42.650374 62.6637276-3.077508 21.885761-4.831911 62.66888 25.022148 62.66888zm21.61816-153.6829379c19.652405 0 62.605203 7.7097373 50.88971 91.0140579-11.717212 83.307756-56.836809 91.017493-76.496086 91.017493-19.654123 0-62.605202-7.709737-50.887991-91.017493 11.715493-83.3043206 56.836808-91.0140579 76.494367-91.0140579zm-725.5503507 146.8896789c-3.0361478 0-4.6888209 4.452713-5.5219726 8.810209-.8212251 4.303827-.9677508 8.754809 2.1604015 8.754809 3.162228 0 4.6871171-4.450982 5.5083423-8.754809.8348554-4.357496.8910804-8.810209-2.1467712-8.810209zm-3.809667 19.900442c-4.7535647 0-5.6344224-5.011899-4.4843664-11.026178 1.1432408-5.979654 3.9493774-11.026178 8.704646-11.026178 4.7569723 0 5.6310148 5.046524 4.487774 11.026178-1.150056 6.014279-3.9510812 11.026178-8.7080536 11.026178zm14.7169636 0c-3.4368063 0-4.8847119-1.774985-4.1441266-5.550295l2.2777815-11.601537h2.6471987l-2.3390592 11.91528c-.4096855 2.088727.4166887 3.179025 2.1184593 3.179025 1.0084567 0 1.8523389-.282541 2.5246433-.653485l2.8345336-14.44082h2.6174352l-3.0936509 15.747791c-1.1852867.748822-3.0481303 1.404041-5.4432149 1.404041m13.7898125-.612565c-2.0591669 0-3.1965167-1.411906-2.6759222-4.175962l2.0127444-10.658434h-1.4308059l.3465103-1.843843h1.4324639l.7178899-3.807193 2.6311577-.954359-.8986058 4.761552h2.4172829l-.3481684 1.843843h-2.4189408l-1.9762696 10.47405c-.329931 1.749943.2404019 2.364557 1.1953778 2.364557.268587 0 .5487796-.059754.8007872-.122923l-.3564581 1.872866c-.2602972.122923-.8521834.245846-1.4490433.245846m6.9356735.612565c-1.6757603 0-2.878649-.366674-3.6086661-1.226227l1.0682757-1.962987c.450436.55257 1.3185178 1.043743 2.6542938 1.043743s2.5749067-.92095 2.8389554-2.26997c.3330811-1.688408-.3745005-2.365476-1.7120023-3.470616-1.353034-1.16483-2.7354068-2.667343-2.2953256-4.910025.4832264-2.452455 2.6284067-4.35575 5.1135713-4.35575 1.5532279 0 2.6750036.460474 3.3636013 1.227932l-1.0216788 1.717401c-.4314522-.491173-1.2425823-.951648-2.3626322-.951648-1.182179 0-2.2435514.982346-2.4661807 2.118184-.3020165 1.53321.6178395 2.392763 1.9035671 3.436506 1.4928245 1.258631 2.7319552 2.546255 2.2297449 5.09251-.505662 2.580364-3.032246 4.510947-5.7055238 4.510947m12.6767021-.612565c-2.0610993 0-3.1986005-1.411906-2.6762785-4.175962l2.0113543-10.658434h-1.4326547l.3498728-1.843843h1.4309965l.7196437-3.807193 2.6281917-.954359-.8987255 4.761552h2.4192629l-.3498728 1.843843h-2.4176048l-1.9765328 10.47405c-.331633 1.749943.2387758 2.364557 1.1938789 2.364557.2719391 0 .5505108-.059754.8008937-.122923l-.3531891 1.872866c-.2619901.122923-.8556132.245846-1.4492363.245846m12.5743439-8.898797c-3.4887063.521871-5.4992046 1.442821-6.092522 4.512653-.413627 2.147176.5000818 3.25061 2.4851523 3.25061.8255587 0 1.6901069-.214888 2.166456-.460474zm-4.1277939 9.511362c-3.6005889 0-4.9550478-1.993685-4.3803775-4.973128.8475963-4.386448 4.6346564-5.674072 8.8285628-6.195943l.1542625-.798157c.4509212-2.329661-.5678895-3.221618-2.2478253-3.221618-1.3425925 0-2.6953562.521872-3.5158294.982347l-.2491933-1.717401c.9323559-.552569 2.5868639-1.227932 4.5109074-1.227932 2.5648264 0 4.6600844 1.320027 3.865039 5.428485l-2.0257551 10.49712c-1.2425761.735054-2.8953888 1.226227-4.9397911 1.226227zm16.7801739-.612565 2.3448075-12.185321c.3853536-1.99876-.3767519-3.02853-2.1710543-3.02853-1.2696023 0-1.9009628.218804-2.5753315.498388l-2.8333807 14.715463h-2.5701706l3.0604641-15.901522c1.4209912-.781444 3.2135733-1.250311 5.506771-1.250311 3.0983113 0 4.8392835 1.4066 4.1545929 4.966512l-2.3448075 12.185321zm16.6223901-14.489559c-.405021-.125066-.845929-.248418-1.459441-.248418-3.106865 0-4.701312 3.297968-5.364383 6.721002-.760481 3.914731-.21191 6.657612 2.495062 6.657612.645982 0 1.327851-.030838 1.850789-.339219zm-4.83461 15.102124c-4.0929275 0-5.583129-3.265417-4.5851042-8.415387 1.0698002-5.514887 4.2757842-8.722054 7.8440652-8.722054.801496 0 1.447478.15419 1.912311.308381l1.486784-7.673558h2.553166l-4.511619 23.270806c-1.059547.709277-2.700136 1.231812-4.699603 1.231812zm13.571533-20.285384c-.804896 0-1.332127-.672459-1.176767-1.496052.163623-.855856.938769-1.496051 1.742012-1.496051s1.337086.640195 1.173462 1.496051c-.155359.823593-.935464 1.496052-1.738707 1.496052zm-4.973165 19.672819 3.115459-16.466753h2.498978l-3.115459 16.466753zm14.546243 0 2.346444-12.185321c.385339-1.99876-.376739-3.02853-2.172697-3.02853-1.269557 0-1.900895.218804-2.57524.498388l-2.833279 14.715463h-2.570078l3.060354-15.901522c1.422661-.781444 3.213458-1.250311 5.508294-1.250311 3.09476 0 4.83911 1.4066 4.152724 4.966512l-2.346444 12.185321zm16.434073-14.225058c-.358321-.216153-1.005004-.368833-1.772833-.368833-2.641333 0-4.279368 2.7448-5.091561 6.940913-.721759 3.738075-.054601 6.48459 2.189167 6.48459.614263 0 1.238764-.060042 2.264243-.584985zm-7.122043 21.575843c-2.028776 0-3.434757-.49578-4.246949-1.236876l1.170513-1.912782c.52383.463185 1.711406.988128 3.095205.988128 2.395627 0 3.700937-1.821861 4.166753-4.226992l.19793-1.019007c-.808781.524943-1.74212.741096-2.847794.741096-3.288015 0-4.818555-3.2097-3.844265-8.242977 1.032304-5.338636 3.885216-8.980642 8.186766-8.980642 2.090202 0 3.272659.557537 3.970531 1.23516l-3.091793 15.988459c-.810486 4.194397-3.346029 6.666433-6.756897 6.666433zm25.329825-6.73822c-4.401299 0-5.861511-4.793765-4.657869-11.026178 1.133041-5.856737 4.551108-11.026178 9.016119-11.026178 1.673733 0 2.731009.470893 3.449061 1.248214l-1.000451 1.805669c-.449429-.406839-1.234637-.841376-2.476161-.841376-3.25276 0-5.274327 4.360958-6.135301 8.813671-.843754 4.360958-.377106 8.690754 2.7224 8.690754 1.239802 0 2.217869-.405107 2.867043-.870806l.270346 1.961479c-.85753.746158-2.255752 1.244751-4.055187 1.244751m14.343554-15.309933c-2.468389 0-3.613761 3.405807-4.251583 6.71952-.639514 3.312008-.712263 6.533626 1.696911 6.533626 2.436243 0 3.542704-3.221618 4.182218-6.533626.639514-3.313713.810389-6.71952-1.627546-6.71952zm-2.952254 15.309933c-3.899681 0-4.781127-3.804886-3.864152-8.559714.935585-4.850335 3.27201-8.592118 7.141238-8.592118 3.89799 0 4.759134 3.741783 3.825241 8.592118-.916975 4.754828-3.233098 8.559714-7.102327 8.559714zm16.479602-.612565 2.344707-12.185321c.385337-1.99876-.376736-3.02853-2.174402-3.02853-1.269547 0-1.89916.218804-2.5735.498388l-2.833259 14.715463h-2.570059l3.060332-15.901522c1.42265-.781444 3.213435-1.250311 5.508254-1.250311 3.096457 0 4.839075 1.4066 4.152693 4.966512l-2.344706 12.185321zm10.928617 0c-2.059439 0-3.19694-1.411906-2.674618-4.175962l2.011352-10.658434h-1.430995l.346556-1.843843h1.432654l.719642-3.807193 2.629848-.954359-.898725 4.761552h2.417603l-.348215 1.843843h-2.41926l-1.976531 10.47405c-.329975 1.749943.240433 2.364557 1.195536 2.364557.268622 0 .548852-.059754.799234-.122923l-.354847 1.872866c-.260331.122923-.852296.245846-1.449234.245846m12.667833-14.835674c-1.038226-.466978-2.316847-.341988-3.267974.187486l-2.856863 14.648188h-2.602533l3.099-15.896357c1.64618-.873197 3.079838-1.310664 6.706661-1.249904zm5.438944-4.837145c-.804951 0-1.332219-.672459-1.176849-1.496052.163635-.855856.938834-1.496051 1.743785-1.496051.801645 0 1.333872.640195 1.17189 1.496051-.155371.823593-.935528 1.496052-1.738826 1.496052zm-4.973506 19.672819 3.115672-16.466753h2.49915l-3.11402 16.466753zm14.027358-14.767102c-.697593 0-1.38339.092514-2.170288.553373l-2.397763 12.544271c.357221.186743.997523.342646 1.695116.342646 2.731394 0 4.28497-2.898785 5.051647-6.90603.682428-3.577225.188721-6.53426-2.178712-6.53426zm-3.305982 15.379667c-2.123107 0-3.292501-.555087-3.979984-1.231812l4.448416-23.270806h2.517399l-1.533356 8.011064c.589752-.366631 1.521561-.645887 2.734765-.645887 3.245321 0 4.761827 3.176328 3.808113 8.168681-1.019428 5.331572-3.808113 8.96876-7.995353 8.96876zm15.062573 0c-3.43711 0-4.886894-1.774985-4.144492-5.550295l2.277982-11.601537h2.647432l-2.341016 11.91528c-.409722 2.088727.418476 3.179025 2.120397 3.179025 1.008545 0 1.852502-.282541 2.524865-.653485l2.834784-14.44082h2.615915l-3.092173 15.747791c-1.185391.748822-3.048399 1.404041-5.443694 1.404041m13.177012-.612565c-2.0611 0-3.198601-1.411906-2.676279-4.175962l2.013013-10.658434h-1.432655l.348215-1.843843h1.432654l.717986-3.807193 2.631508-.954359-.900384 4.761552h2.417605l-.348215 1.843843h-2.417604l-1.976533 10.47405c-.329975 1.749943.240434 2.364557 1.197195 2.364557.266965 0 .547194-.059754.797577-.122923l-.354847 1.872866c-.260332.122923-.852297.245846-1.449236.245846m12.313613-14.697368c-2.468388 0-3.613761 3.405807-4.251583 6.71952-.639514 3.312008-.712263 6.533626 1.696911 6.533626 2.436244 0 3.542704-3.221618 4.180526-6.533626.641206-3.313713.812081-6.71952-1.625854-6.71952zm-2.952253 15.309933c-3.899682 0-4.781128-3.804886-3.864153-8.559714.935585-4.850335 3.27201-8.592118 7.141239-8.592118 3.897989 0 4.759133 3.741783 3.82524 8.592118-.918667 4.754828-3.23479 8.559714-7.102326 8.559714zm17.400266-15.448239c-1.03841-.466978-2.315516-.341988-3.268554.187486l-2.855629 14.648188h-2.602995l3.099551-15.896357c1.646473-.873197 3.076901-1.310664 6.706111-1.249904zm2.850314 15.448239c-1.677486 0-2.880375-.366674-3.610392-1.226227l1.068276-1.962987c.450436.55257 1.318518 1.043743 2.654294 1.043743s2.576632-.92095 2.840681-2.26997c.331355-1.688408-.376226-2.365476-1.712002-3.470616-1.35476-1.16483-2.737133-2.667343-2.297052-4.910025.483227-2.452455 2.628407-4.35575 5.113571-4.35575 1.554954 0 2.675004.460474 3.363602 1.227932l-1.021679 1.717401c-.429726-.491173-1.240857-.951648-2.362632-.951648-1.180453 0-2.241826.982346-2.464455 2.118184-.303742 1.53321.616114 2.392763 1.901841 3.436506 1.492825 1.258631 2.73023 2.546255 2.229745 5.09251-.507388 2.580364-3.03052 4.510947-5.703798 4.510947m20.642077-.612565c-2.0611 0-3.198601-1.411906-2.676279-4.175962l2.011354-10.658434h-1.430996l.348214-1.843843h1.432655l.717986-3.807193 2.62985-.954359-.898726 4.761552h2.417605l-.348215 1.843843h-2.417605l-1.978191 10.47405c-.329974 1.749943.240434 2.364557 1.195537 2.364557.270281 0 .548853-.059754.800894-.122923l-.354847 1.872866c-.26199.122923-.853955.245846-1.449236.245846m12.314091-14.697368c-2.470237 0-3.613991 3.405807-4.253546 6.71952-.639555 3.312008-.712308 6.533626 1.697019 6.533626 2.436399 0 3.542931-3.221618 4.182485-6.533626.639555-3.313713.810441-6.71952-1.625958-6.71952zm-2.954133 15.309933c-3.898239 0-4.779741-3.804886-3.862708-8.559714.933953-4.850335 3.270527-8.592118 7.140003-8.592118 3.89993 0 4.761129 3.741783 3.825484 8.592118-.917033 4.754828-3.233304 8.559714-7.102779 8.559714zm23.542771 0c-4.401299 0-5.861511-4.793765-4.657869-11.026178 1.133042-5.856737 4.551108-11.026178 9.016119-11.026178 1.673733 0 2.731009.470893 3.449062 1.248214l-1.000452 1.805669c-.447706-.406839-1.232915-.841376-2.474439-.841376-3.254482 0-5.276048 4.360958-6.137022 8.813671-.843755 4.360958-.377107 8.690754 2.722399 8.690754 1.241525 0 2.219591-.405107 2.867043-.870806l.270346 1.961479c-.855808.746158-2.255751 1.244751-4.055187 1.244751" fill="#273978"/><path d="m341.972 227.874 4.763-24.502h2.592l-4.763 24.502z" fill="#273978"/><path d="m356.807255 213.328764c-1.903726 0-3.788062 2.118184-4.542502 5.859968l6.477957-.796451c.620474-3.407514-.029966-5.063517-1.935455-5.063517zm-4.791044 7.579073c-.525287 3.562711.583457 5.462596 3.058301 5.462596 1.746845 0 3.09708-.550865 3.823316-1.013045l.283797 1.903296c-1.022372.673657-2.75159 1.226227-4.722299 1.226227-3.87091 0-5.987924-2.728739-4.805146-8.621111 1.103456-5.493293 4.126503-8.530721 7.616668-8.530721 3.617079 0 5.14006 2.854943 3.872672 8.530721zm18.815222-1.932288c-3.488449.521871-5.4988 1.442821-6.092073 4.512653-.413597 2.147176.500045 3.25061 2.484969 3.25061.825498 0 1.689983-.214888 2.167992-.460474zm-4.125795 9.511362c-3.600324 0-4.956378-1.993685-4.38175-4.973128.849229-4.386448 4.63601-5.674072 8.827913-6.195943l.154251-.798157c.450888-2.329661-.566152-3.221618-2.24766-3.221618-1.344188 0-2.695157.521872-3.51557.982347l-.249175-1.717401c.932287-.552569 2.588368-1.227932 4.50888-1.227932 2.564638 0 4.661437 1.320027 3.868145 5.428485l-2.028996 10.49712c-1.242485.735054-2.893481 1.226227-4.936038 1.226227zm16.168093-.612565 2.344903-12.185321c.385369-1.99876-.378488-3.02853-2.172863-3.02853-1.269654 0-1.90104.218804-2.575436.498388l-2.833496 14.715463h-2.570274l3.060588-15.901522c1.422769-.781444 3.213703-1.250311 5.506994-1.250311 3.098437 0 4.8412 1.4066 4.153041 4.966512l-2.343182 12.185321zm21.159752.612565c-4.404994 0-5.863567-4.793765-4.661578-11.026178 1.133106-5.856737 4.551368-11.026178 9.014911-11.026178 1.675551 0 2.734609.470893 3.45098 1.248214l-1.000508 1.805669c-.44601-.406839-1.234707-.841376-2.474581-.841376-3.256389 0-5.278071 4.360958-6.137372 8.813671-.843803 4.360958-.377128 8.690754 2.720833 8.690754 1.243317 0 2.221439-.405107 2.868929-.870806l.270361 1.961479c-.857579.746158-2.25588 1.244751-4.051975 1.244751m15.21265-9.511362c-3.489212.521871-5.498306 1.442821-6.091709 4.512653-.415382 2.147176.500154 3.25061 2.485512 3.25061.822288 0 1.692047-.214888 2.165075-.460474zm-4.128392 9.511362c-3.599415 0-4.95407-1.993685-4.377621-4.973128.846024-4.386448 4.633632-5.674072 8.829842-6.195943l.152589-.798157c.449291-2.329661-.567972-3.221618-2.248151-3.221618-1.344482 0-2.697442.521872-3.518034.982347l-.247534-1.717401c.930796-.552569 2.587239-1.227932 4.509866-1.227932 2.565197 0 4.660759 1.320027 3.867294 5.428485l-2.027744 10.49712c-1.242756.735054-2.894113 1.226227-4.940507 1.226227zm15.828495-15.88726c-.870723 0-1.466208.15469-1.919746.404975l-2.515231 13.011344c.379102.125143.817061.279833 1.471402.279833 3.148799 0 4.7985-3.5318 5.449378-6.879362.723584-3.752537.289087-6.81679-2.485803-6.81679zm-2.859712 15.57329c-.810136 0-1.424663-.189452-1.897242-.344142l-1.312144 6.783766h-2.620826l4.383046-22.638627c1.204818-.750855 2.830284-1.251425 4.762147-1.251425 4.147621 0 5.662299 3.281515 4.644436 8.535762-1.083644 5.598389-4.343231 8.914666-7.959417 8.914666zm15.076426-19.971414c-.805046 0-1.332375-.672459-1.176987-1.496052.160348-.855856.938945-1.496051 1.740684-1.496051.803393 0 1.340641.640195 1.175334 1.496051-.155389.823593-.935639 1.496052-1.739031 1.496052zm-4.972437 19.672819 3.112732-16.466753h2.501097l-3.116039 16.466753zm10.768098 0c-2.061066 0-3.196891-1.411906-2.674577-4.175962l2.01298-10.658434h-1.430974l.346551-1.843843h1.430974l.719632-3.807193 2.629807-.954359-.898711 4.761552h2.417566l-.349867 1.843843h-2.415908l-1.976501 10.47405c-.331627 1.749943.238772 2.364557 1.19386 2.364557.270276 0 .548844-.059754.800881-.122923l-.3565 1.872866c-.260328.122923-.850625.245846-1.449213.245846m13.188676-8.898797c-3.4882.521871-5.496712 1.442821-6.091638 4.512653-.411873 2.147176.501704 3.25061 2.483097 3.25061.827134 0 1.691556-.214888 2.167836-.460474zm-4.127195 9.511362c-3.601762 0-4.95433-1.993685-4.381438-4.973128.849169-4.386448 4.637375-5.674072 8.827283-6.195943l.155935-.798157c.450856-2.329661-.569502-3.221618-2.247499-3.221618-1.342398 0-2.693271.521872-3.517015.982347l-.247462-1.717401c.932221-.552569 2.586489-1.227932 4.510253-1.227932 2.564455 0 4.661104 1.320027 3.864479 5.428485l-2.027156 10.49712c-1.240701.735054-2.893274 1.226227-4.93738 1.226227z" fill="#273978"/><path d="m466.382 227.874 4.764-24.502h2.59l-4.763 24.502z" fill="#273978"/><path d="m478.098294 208.201527c-.806596 0-1.333858-.672459-1.176837-1.496052.161981-.855856.933867-1.496051 1.742116-1.496051.80329 0 1.333859.640195 1.171878 1.496051-.157022.823593-.935519 1.496052-1.737157 1.496052zm-4.975111 19.672819 3.117296-16.466753h2.49582l-3.112338 16.466753zm9.739495.612565c-1.677748 0-2.879099-.366674-3.610957-1.226227l1.068443-1.962987c.452233.55257 1.318724 1.043743 2.652983 1.043743 1.339438 0 2.57531-.92095 2.842852-2.26997.331407-1.688408-.376285-2.365476-1.715722-3.470616-1.35152-1.16483-2.734109-2.667343-2.295685-4.910025.483302-2.452455 2.630544-4.35575 5.116098-4.35575 1.556923 0 2.677148.460474 3.362401 1.227932l-1.020113 1.717401c-.431519-.491173-1.242776-.951648-2.361275-.951648-1.182364 0-2.245629.982346-2.466567 2.118184-.302064 1.53321.61621 2.392763 1.902139 3.436506 1.493058 1.258631 2.732383 2.546255 2.23182 5.09251-.509193 2.580364-3.034447 4.510947-5.706417 4.510947m23.136618-.612565 2.36715-12.185321c.36965-1.906724-.419978-2.997272-2.011383-2.997272-1.063829 0-2.025266.437608-2.910344 1.309353l-2.695149 13.87324h-2.592757l2.358472-12.154063c.340147-1.748698-.529311-3.059788-2.30988-3.059788-1.124569 0-1.747595.156289-2.46607.468866l-2.865222 14.744985h-2.591022l3.08736-15.901522c1.402241-.781444 2.865222-1.250311 5.270551-1.250311 2.254346 0 3.443127.781444 3.986321 1.844208 1.331088-1.219053 2.797541-1.844208 4.765537-1.844208 2.530281 0 4.224077 1.750435 3.595846 4.966512l-2.365414 12.185321z" fill="#273978"/><path d="m356.680949 60.6439791h1.240402l-.331576-12.4931508c.03436-1.2242464.551481-1.7101674 1.654443-1.5728046 4.413564.772666 8.830564 1.5470491 13.244128 2.3197151-.467299-1.5195765-.936315-3.0340019-1.405331-4.5518613-.269728-.8173089-.240522-1.7101674.41404-2.2338633 4.662675-3.5319421 9.323632-7.0587332 13.988025-10.5889583-1.073755-.4704677-2.150946-.9375014-3.22642-1.4079692-.606457-.3296708-.996445-.8808392-.82808-1.3255514.993009-3.0855129 1.9843-6.177894 2.980745-9.2634069-2.539217.6885313-5.078433 1.3753455-7.615932 2.0673108-.663151.1545332-1.18199.0154534-1.408767-.4120885-.635663-1.2706063-1.26789-2.5394956-1.903553-3.8066678-2.095971 2.2613358-4.489157 4.7991144-6.585127 7.0604502-.934597.918614-1.94135.1390799-1.774703-.6061136 1.157938-5.4344175 2.317593-10.8688351 3.475531-16.30153559-1.711136 1.04910873-3.420555 2.09650042-5.131691 3.14560919-.790284.4876381-1.286789.3914841-1.491232 0-1.764395-3.55769773-3.532225-7.11711245-5.294902-10.6730931-1.762677 3.55769769-3.525354 7.11711241-5.294903 10.6748101-.202725.3914841-.697511.4876381-1.487795 0-1.712855-1.0473917-3.423991-2.09650043-5.13341-3.14389212 1.159656 5.43270052 2.317594 10.86540102 3.47725 16.29810152.164928.7469105-.840107 1.5264447-1.772985.6095477-2.099407-2.2613359-4.492593-4.8008315-6.588563-7.0621673-.635663 1.2688893-1.26789 2.5360615-1.903554 3.8049508-.225059.4309759-.742179.5683388-1.408767.4120885-2.53578-.6868142-5.076715-1.3770625-7.615931-2.0655937.994726 3.0872299 1.986017 6.1778939 2.980744 9.2651239.168365.4412781-.219905.9941636-.82808 1.3238344-1.073755.4704677-2.152664.9375014-3.228138 1.4079691 4.664393 3.5285081 9.327069 7.0587332 13.989744 10.5889584.654561.5236958.683767 1.4165543.41404 2.2338632-.467298 1.5161424-.938033 3.0340019-1.405331 4.5501443 4.413564-.770949 8.828846-1.543615 13.24241-2.314564 1.106397-.1425139 1.6218.3451242 1.657878 1.5710876l-.331575 12.4897167z" fill="#2d8e44"/><g fill="#273978"><path d="m34.763 281.272h-23.119v-12.356h61.286v12.356h-23.359v68.503h-14.808z"/><path d="m87.7323685 316.689279c0 13.625518 6.8809969 24.466258 18.6467795 24.466258 11.867227 0 18.548774-10.940197 18.548774-24.96354 0-12.630955-6.282649-24.565715-18.548774-24.565715-12.1664004 0-18.6467795 11.238566-18.6467795 25.062997zm50.1597505-.994564c0 22.477132-13.662269 35.305285-32.211043 35.305285-18.9459535 0-30.9129046-14.419454-30.9129046-34.111809 0-20.587461 12.9641971-35.108086 31.9101506-35.108086 19.645745 0 31.213797 14.818994 31.213797 33.91461zm20.794205-.752234c1.501752.395259 3.504088.496213 6.007008.496213 9.210746 0 14.815561-4.46591 14.815561-12.306064 0-7.443183-5.204348-11.412881-13.714276-11.412881-3.403972 0-5.806775.299438-7.108293.595455zm-12.214251-31.162128c4.40514-.793939 10.512265-1.387683 18.82196-1.387683 9.010512 0 15.616495 1.883896 19.923243 5.456624 4.002946 3.275 6.605983 8.53485 6.605983 14.787124 0 6.351517-2.00061 11.611366-5.806774 15.184094-4.903997 4.861169-12.612991 7.143746-21.323153 7.143746-2.302687 0-4.40514-.097532-6.007008-.395259v25.20587h-12.214251z"/><path d="m244.374 284.755h-.238l-14.253 7.239-2.514-11.219 18.92-9.409h12.335v78.409h-14.25z"/><path d="m332.716497 283.653542h-29.938735l-2.275084 15.663408c1.796119-.242643 3.352755-.361384 5.627839-.361384 6.825252 0 13.652214 1.564276 18.920829 5.057653 5.867322 3.73602 10.179718 10.363111 10.179718 19.879552 0 14.938919-12.335061 27.107229-31.495372 27.107229-8.982305 0-16.526004-2.288764-20.597207-4.579249l2.993531-11.20462c3.352756 1.80864 10.059977 4.097404 17.124711 4.097404 8.623081 0 16.885228-4.938912 16.885228-14.336612 0-8.915856-6.58577-14.818458-22.155554-14.818458-4.310685 0-7.543699.240922-10.656972.722767l5.148874-39.51474h40.238194zm52.749973 24.006876c1.805922.478184 4.213818.599872 7.223687.599872 11.078039 0 17.820147-5.400563 17.820147-14.878542 0-8.999796-6.262248-13.798773-16.495804-13.798773-4.093423 0-6.982898.359923-8.54803.719846zm-14.689882-37.675397c5.29737-.96151 12.643171-1.681356 22.635938-1.681356 10.83553 0 18.785025 2.279514 23.96028 6.600307 4.817511 3.959156 7.947775 10.317801 7.947775 17.87619 0 7.680077-2.407895 14.040435-6.982897 18.359514-5.901064 5.878747-15.171461 8.638159-25.647527 8.638159-2.76908 0-5.29737-.119974-7.223687-.479898v30.476932h-14.689882zm75.963043 43.369581h7.315702c8.317853 0 13.529039-4.366667 13.529039-11.015911 0-7.343941-5.211186-10.718184-13.228393-10.718184-3.908389 0-6.413767.297727-7.616348.595454zm-12.226242-29.574249c4.609895-.793939 11.524737-1.387683 18.640009-1.387683 9.720864 0 16.33506 1.586168 20.84474 5.357381 3.707958 3.076516 5.810748 7.740911 5.810748 13.39773 0 8.634093-5.912691 14.489398-12.224514 16.771974v.297727c4.808596 1.786364 7.716562 6.450759 9.418491 12.901518 2.106245 8.334655 3.910116 16.077277 5.313128 18.655869h-12.729045c-1.000424-1.984849-2.603865-7.441472-4.507952-15.777838-1.905815-8.733335-5.11097-11.512124-12.126027-11.710608h-6.213336v27.488446h-12.226242zm63.831068 32.908926c0 13.625518 6.880997 24.466258 18.648499 24.466258 11.865507 0 18.548774-10.940197 18.548774-24.96354 0-12.630955-6.282649-24.565715-18.548774-24.565715-12.1664 0-18.648499 11.238566-18.648499 25.062997zm50.159751-.994564c0 22.477132-13.66055 35.305285-32.209324 35.305285-18.947673 0-30.914624-14.419454-30.914624-34.111809 0-20.587461 12.964197-35.108086 31.91187-35.108086 19.644025 0 31.212078 14.818994 31.212078 33.91461zm22.103165-33.302045h12.216651v43.376443c0 18.463741-8.938553 24.618322-22.249616 24.618322-3.377434 0-7.648895-.595605-10.231638-1.588279l1.490044-9.827476c1.986726.597317 4.668806 1.19121 7.549558 1.19121 6.953541 0 11.225001-3.174847 11.225001-14.789136z"/><path d="m631.935 319.883h-25.243v19.796h28.225v10.096h-40.449v-67.382h38.958v10.096h-26.734v17.396h25.243z"/><path d="m691.926672 347.399451c-2.882986 1.493992-9.245438 2.987984-17.297917 2.987984-21.272736 0-34.196467-13.344609-34.196467-33.764211 0-22.109359 15.309651-35.455685 35.788794-35.455685 8.050765 0 13.816737 1.693191 16.303784 2.987984l-2.685873 9.760745c-3.179513-1.394392-7.553699-2.589586-13.120844-2.589586-13.619625 0-23.463257 8.565552-23.463257 24.700662 0 14.740718 8.648958 24.200947 23.362129 24.200947 4.97238 0 10.140159-.995994 13.323099-2.489986z"/><path d="m715.388 292.689h-19.186v-10.296h50.867v10.296h-19.388v57.086h-12.293z"/><path d="m751.589812 336.046832c3.973912 2.290787 9.93478 4.281059 16.191979 4.281059 7.848476 0 12.21978-3.683462 12.21978-9.161432 0-5.079571-3.377826-8.067554-11.921737-11.155137-11.025893-3.983978-18.081299-9.860345-18.081299-19.521491 0-10.955939 9.139997-19.322292 23.644776-19.322292 7.254103 0 12.617171 1.595309 16.096057 3.388099l-2.982147 9.858627c-2.384347-1.294793-7.053694-3.187182-13.312605-3.187182-7.747416 0-11.125241 4.183177-11.125241 8.069272 0 5.177454 3.874564 7.56784 12.814153 11.053821 11.623693 4.382375 17.286518 10.258742 17.286518 19.919888 0 10.755023-8.14652 20.117371-25.433037 20.117371-7.053694 0-14.405432-1.991989-18.079587-4.183177z"/></g></g></svg>